<svg width="226" height="32" viewBox="0 0 226 32" fill="none" xmlns="http://www.w3.org/2000/svg">
<path d="M49.074 17.338V17.198H44.972V17.338C45.5133 17.3847 45.8913 17.5293 46.106 17.772C46.2647 17.94 46.358 18.1547 46.386 18.416C46.4233 18.6773 46.442 18.9713 46.442 19.298C46.442 19.6247 46.4233 19.942 46.386 20.25C46.3487 20.558 46.2927 20.7727 46.218 20.894C45.994 21.2393 45.686 21.4913 45.294 21.65C44.9113 21.7993 44.496 21.874 44.048 21.874C43.4227 21.874 42.8673 21.7573 42.382 21.524C41.8967 21.2813 41.486 20.9453 41.15 20.516C40.814 20.0867 40.5573 19.5733 40.38 18.976C40.2027 18.3693 40.114 17.702 40.114 16.974C40.114 16.3113 40.2073 15.6813 40.394 15.084C40.5807 14.4773 40.8467 13.9453 41.192 13.488C41.5373 13.0213 41.9573 12.6527 42.452 12.382C42.9467 12.102 43.502 11.962 44.118 11.962C44.6967 11.962 45.2193 12.06 45.686 12.256C46.1527 12.452 46.5353 12.7087 46.834 13.026C47.0673 13.2687 47.2867 13.5767 47.492 13.95C47.6973 14.3233 47.8513 14.72 47.954 15.14H48.122V12.088H47.996C47.8747 12.2467 47.772 12.382 47.688 12.494C47.604 12.606 47.5527 12.662 47.534 12.662C47.5153 12.662 47.4267 12.6153 47.268 12.522C47.1093 12.4193 46.8807 12.312 46.582 12.2C46.2927 12.0787 45.9333 11.9713 45.504 11.878C45.0747 11.7753 44.58 11.724 44.02 11.724C43.0867 11.724 42.2933 11.8593 41.64 12.13C40.9867 12.3913 40.436 12.7413 39.988 13.18C39.6707 13.488 39.4047 13.8147 39.19 14.16C38.9847 14.5053 38.8213 14.846 38.7 15.182C38.588 15.518 38.5087 15.84 38.462 16.148C38.4153 16.4467 38.392 16.7127 38.392 16.946C38.392 17.7393 38.518 18.458 38.77 19.102C39.0313 19.7367 39.4 20.278 39.876 20.726C40.3613 21.1647 40.954 21.5007 41.654 21.734C42.354 21.958 43.1473 22.07 44.034 22.07C44.482 22.07 44.93 22.0233 45.378 21.93C45.826 21.8367 46.232 21.7247 46.596 21.594C46.9693 21.454 47.282 21.3187 47.534 21.188C47.7953 21.0573 47.9587 20.964 48.024 20.908V18.864C48.024 18.6493 48.0287 18.4347 48.038 18.22C48.0473 18.0053 48.0847 17.8467 48.15 17.744C48.234 17.6133 48.3693 17.52 48.556 17.464C48.7427 17.3987 48.9153 17.3567 49.074 17.338ZM55.1907 15.98C55.1907 15.7653 55.1067 15.588 54.9387 15.448C54.7801 15.308 54.5841 15.238 54.3507 15.238C54.0614 15.238 53.8047 15.3173 53.5807 15.476C53.3567 15.6347 53.1654 15.826 53.0067 16.05C52.8481 16.2647 52.7174 16.4793 52.6147 16.694C52.5121 16.9087 52.4374 17.072 52.3907 17.184H52.3627L52.3907 15.238H52.3067L50.4727 15.952V16.036C50.5847 16.0827 50.6967 16.1433 50.8087 16.218C50.9207 16.2833 51.0187 16.3393 51.1027 16.386C51.1681 16.4327 51.2054 16.4747 51.2147 16.512C51.2334 16.5493 51.2427 16.6053 51.2427 16.68V21.412C51.2427 21.5613 51.1634 21.6687 51.0047 21.734C50.8554 21.7993 50.6734 21.8413 50.4587 21.86V22H53.5947V21.86C53.5014 21.8413 53.3894 21.832 53.2587 21.832C53.1374 21.8227 53.0161 21.8087 52.8947 21.79C52.7827 21.7713 52.6801 21.7387 52.5867 21.692C52.4934 21.6453 52.4327 21.58 52.4047 21.496V17.464C52.4607 17.324 52.5261 17.1793 52.6007 17.03C52.6754 16.8713 52.7594 16.7313 52.8527 16.61C52.9461 16.4887 53.0441 16.3907 53.1467 16.316C53.2587 16.232 53.3707 16.19 53.4827 16.19C53.6134 16.19 53.7161 16.218 53.7907 16.274C53.8654 16.3207 53.9354 16.3767 54.0007 16.442C54.0661 16.5073 54.1407 16.568 54.2247 16.624C54.3181 16.6707 54.4394 16.694 54.5887 16.694C54.7474 16.694 54.8874 16.6287 55.0087 16.498C55.1301 16.358 55.1907 16.1853 55.1907 15.98ZM62.0666 20.628H61.9826C61.9453 20.768 61.8753 20.8847 61.7726 20.978C61.67 21.062 61.5113 21.104 61.2966 21.104C61.11 21.104 60.942 21.0387 60.7926 20.908C60.6526 20.768 60.5826 20.488 60.5826 20.068C60.5826 19.7507 60.5826 19.4613 60.5826 19.2C60.592 18.9293 60.5966 18.668 60.5966 18.416C60.5966 18.164 60.5966 17.9027 60.5966 17.632C60.606 17.3613 60.6106 17.058 60.6106 16.722C60.6106 16.5633 60.606 16.4047 60.5966 16.246C60.5873 16.078 60.564 15.9613 60.5266 15.896C60.4333 15.7093 60.2793 15.5553 60.0646 15.434C59.85 15.3033 59.6213 15.238 59.3786 15.238C59.2573 15.238 59.0986 15.266 58.9026 15.322C58.716 15.378 58.506 15.4527 58.2726 15.546C58.0486 15.6393 57.8106 15.7513 57.5586 15.882C57.3066 16.0127 57.0593 16.148 56.8166 16.288C56.742 16.3347 56.6533 16.386 56.5506 16.442C56.4573 16.498 56.3686 16.5633 56.2846 16.638C56.2006 16.7127 56.1306 16.7967 56.0746 16.89C56.0186 16.9833 55.9906 17.086 55.9906 17.198C55.9906 17.338 56.042 17.464 56.1446 17.576C56.2566 17.6787 56.3873 17.73 56.5366 17.73C56.6953 17.73 56.84 17.6787 56.9706 17.576C57.1106 17.4733 57.1806 17.3567 57.1806 17.226V16.596C57.1806 16.54 57.2133 16.4747 57.2786 16.4C57.344 16.316 57.4326 16.2367 57.5446 16.162C57.6566 16.078 57.7826 16.0127 57.9226 15.966C58.072 15.91 58.2213 15.882 58.3706 15.882C58.5946 15.882 58.7766 15.9147 58.9166 15.98C59.0566 16.036 59.164 16.1013 59.2386 16.176C59.3226 16.2507 59.3786 16.3253 59.4066 16.4C59.444 16.4653 59.4626 16.5073 59.4626 16.526V17.968C59.3693 18.024 59.2526 18.0893 59.1126 18.164C58.982 18.2293 58.828 18.3133 58.6506 18.416C58.4733 18.5093 58.2633 18.626 58.0206 18.766C57.7873 18.906 57.5166 19.074 57.2086 19.27C56.9006 19.466 56.6393 19.6853 56.4246 19.928C56.2193 20.1707 56.1166 20.4227 56.1166 20.684C56.1166 20.9267 56.154 21.132 56.2286 21.3C56.3126 21.468 56.4153 21.608 56.5366 21.72C56.6673 21.8227 56.8073 21.8973 56.9566 21.944C57.1153 21.9813 57.2693 22 57.4186 22C57.6706 22 57.8993 21.9627 58.1046 21.888C58.3193 21.804 58.5106 21.6967 58.6786 21.566C58.856 21.4353 59.0053 21.2953 59.1266 21.146C59.2573 20.9967 59.36 20.8613 59.4346 20.74L59.4626 20.754C59.4626 21.2207 59.584 21.5473 59.8266 21.734C60.0786 21.9207 60.3633 22.014 60.6806 22.014C60.8766 22.014 61.054 21.9813 61.2126 21.916C61.3806 21.8413 61.5253 21.7387 61.6466 21.608C61.768 21.468 61.866 21.314 61.9406 21.146C62.0153 20.978 62.0573 20.8053 62.0666 20.628ZM59.4626 20.348C59.4626 20.5067 59.4066 20.6373 59.2946 20.74C59.136 20.8987 58.9633 21.006 58.7766 21.062C58.59 21.118 58.3753 21.146 58.1326 21.146C57.862 21.146 57.6426 21.048 57.4746 20.852C57.3066 20.656 57.2226 20.4367 57.2226 20.194C57.2226 19.9513 57.3066 19.7367 57.4746 19.55C57.652 19.354 57.8573 19.1767 58.0906 19.018C58.3333 18.8593 58.5806 18.7147 58.8326 18.584C59.0846 18.444 59.2946 18.3133 59.4626 18.192V20.348ZM69.528 18.29C69.528 17.9167 69.4767 17.548 69.374 17.184C69.2714 16.82 69.1127 16.4933 68.898 16.204C68.6927 15.9147 68.4267 15.6813 68.1 15.504C67.7827 15.3267 67.4047 15.238 66.966 15.238C66.6954 15.238 66.4434 15.2893 66.21 15.392C65.986 15.4947 65.776 15.6253 65.58 15.784C65.384 15.9333 65.2067 16.1013 65.048 16.288C64.8894 16.4747 64.7447 16.6567 64.614 16.834L64.6 16.806V15.238H64.516L62.458 16.05V16.134C62.57 16.1807 62.7194 16.2507 62.906 16.344C63.0927 16.428 63.228 16.4933 63.312 16.54C63.3774 16.5867 63.4147 16.6287 63.424 16.666C63.4427 16.7033 63.452 16.7593 63.452 16.834V24.59C63.452 24.6647 63.41 24.73 63.326 24.786C63.2514 24.842 63.1534 24.8887 63.032 24.926C62.92 24.9633 62.7987 24.9913 62.668 25.01C62.5374 25.038 62.4254 25.0567 62.332 25.066V25.22H65.776V25.066C65.6827 25.0567 65.5707 25.0473 65.44 25.038C65.3187 25.0287 65.1974 25.01 65.076 24.982C64.964 24.9633 64.866 24.9307 64.782 24.884C64.698 24.8467 64.6467 24.786 64.628 24.702C64.628 24.534 64.628 24.3147 64.628 24.044C64.628 23.7733 64.6234 23.498 64.614 23.218C64.614 22.938 64.6094 22.672 64.6 22.42C64.6 22.168 64.6 21.9767 64.6 21.846C64.7774 21.8833 64.9454 21.9067 65.104 21.916C65.272 21.9253 65.44 21.93 65.608 21.93C66.2147 21.93 66.7607 21.8413 67.246 21.664C67.7314 21.4773 68.142 21.2253 68.478 20.908C68.814 20.5813 69.0707 20.194 69.248 19.746C69.4347 19.298 69.528 18.8127 69.528 18.29ZM68.268 18.696C68.268 19.1253 68.2074 19.522 68.086 19.886C67.974 20.25 67.82 20.5627 67.624 20.824C67.428 21.0853 67.204 21.2907 66.952 21.44C66.7 21.5893 66.4387 21.664 66.168 21.664C65.86 21.664 65.608 21.6127 65.412 21.51C65.216 21.398 65.062 21.258 64.95 21.09C64.838 20.9127 64.7587 20.7213 64.712 20.516C64.6654 20.3013 64.6327 20.096 64.614 19.9C64.6047 19.6853 64.6 19.4707 64.6 19.256C64.6 19.0413 64.6 18.7427 64.6 18.36C64.6 18.2013 64.6 18.0193 64.6 17.814C64.6094 17.5993 64.614 17.3987 64.614 17.212C64.614 17.156 64.6467 17.0673 64.712 16.946C64.7867 16.8247 64.8894 16.708 65.02 16.596C65.16 16.4747 65.3234 16.372 65.51 16.288C65.706 16.1947 65.9254 16.148 66.168 16.148C66.5227 16.148 66.8307 16.218 67.092 16.358C67.3627 16.4887 67.582 16.6707 67.75 16.904C67.9274 17.128 68.058 17.394 68.142 17.702C68.226 18.01 68.268 18.3413 68.268 18.696ZM77.5065 22V21.874C77.4225 21.8647 77.3339 21.8553 77.2405 21.846C77.1472 21.8273 77.0585 21.8087 76.9745 21.79C76.8905 21.762 76.8205 21.7247 76.7645 21.678C76.7085 21.6313 76.6805 21.5753 76.6805 21.51V17.38C76.6805 17.072 76.6525 16.7873 76.5965 16.526C76.5499 16.2647 76.4612 16.0407 76.3305 15.854C76.2092 15.658 76.0412 15.5087 75.8265 15.406C75.6212 15.294 75.3645 15.238 75.0565 15.238C74.7392 15.238 74.4452 15.294 74.1745 15.406C73.9132 15.5087 73.6799 15.6347 73.4745 15.784C73.2692 15.9333 73.0965 16.092 72.9565 16.26C72.8259 16.428 72.7279 16.5773 72.6625 16.708L72.6345 16.694L72.6765 11.836H72.5645L70.6885 12.69V12.774C70.8099 12.8487 70.9312 12.9187 71.0525 12.984C71.1832 13.04 71.2859 13.1007 71.3605 13.166C71.4259 13.2127 71.4632 13.2547 71.4725 13.292C71.4912 13.3293 71.5005 13.3853 71.5005 13.46V21.412C71.5005 21.5893 71.4119 21.706 71.2345 21.762C71.0665 21.8087 70.8752 21.8413 70.6605 21.86V22H73.4465V21.86C73.3532 21.8413 73.2599 21.8273 73.1665 21.818C73.0732 21.8087 72.9892 21.7947 72.9145 21.776C72.8399 21.748 72.7792 21.7107 72.7325 21.664C72.6859 21.6173 72.6625 21.552 72.6625 21.468V17.17C72.6625 17.0953 72.6765 17.016 72.7045 16.932C72.7419 16.8387 72.7699 16.778 72.7885 16.75C72.9285 16.5447 73.1152 16.3813 73.3485 16.26C73.5819 16.1387 73.8665 16.078 74.2025 16.078C74.4639 16.078 74.6785 16.1247 74.8465 16.218C75.0145 16.3113 75.1452 16.442 75.2385 16.61C75.3412 16.778 75.4112 16.9787 75.4485 17.212C75.4859 17.4453 75.5045 17.6973 75.5045 17.968V21.468C75.5045 21.6173 75.4205 21.7153 75.2525 21.762C75.0845 21.7993 74.8745 21.8273 74.6225 21.846V22H77.5065ZM80.6303 13.026C80.6303 12.8113 80.5557 12.634 80.4063 12.494C80.2663 12.354 80.089 12.284 79.8743 12.284C79.6597 12.284 79.4777 12.354 79.3283 12.494C79.1883 12.634 79.1183 12.8113 79.1183 13.026C79.1183 13.2313 79.193 13.4087 79.3423 13.558C79.4917 13.7073 79.669 13.782 79.8743 13.782C80.089 13.782 80.2663 13.712 80.4063 13.572C80.5557 13.4227 80.6303 13.2407 80.6303 13.026ZM81.4143 22V21.86C81.321 21.8413 81.223 21.832 81.1203 21.832C81.027 21.8227 80.9383 21.8087 80.8543 21.79C80.7703 21.7713 80.6957 21.7433 80.6303 21.706C80.5743 21.6593 80.537 21.5893 80.5183 21.496V15.238H80.4343L78.5443 15.854V15.938C78.675 15.9847 78.7963 16.036 78.9083 16.092C79.0297 16.148 79.1323 16.204 79.2163 16.26C79.2817 16.3067 79.319 16.358 79.3283 16.414C79.347 16.47 79.3563 16.5353 79.3563 16.61V21.412C79.3563 21.496 79.3237 21.566 79.2583 21.622C79.2023 21.678 79.1277 21.7247 79.0343 21.762C78.9503 21.79 78.8523 21.8133 78.7403 21.832C78.6283 21.8413 78.5163 21.8507 78.4043 21.86V22H81.4143ZM88.381 19.998L88.269 19.942C88.045 20.3153 87.765 20.6 87.429 20.796C87.093 20.9827 86.6357 21.076 86.057 21.076C85.693 21.076 85.3617 21.0107 85.063 20.88C84.7737 20.74 84.5264 20.5487 84.321 20.306C84.1157 20.054 83.957 19.7553 83.845 19.41C83.733 19.0553 83.677 18.668 83.677 18.248C83.677 17.8653 83.7284 17.506 83.831 17.17C83.9337 16.834 84.0737 16.54 84.251 16.288C84.4284 16.036 84.6384 15.8353 84.881 15.686C85.1237 15.5367 85.3897 15.462 85.679 15.462C86.071 15.462 86.3557 15.5787 86.533 15.812C86.7197 16.036 86.813 16.3207 86.813 16.666C86.813 16.8527 86.7897 17.0113 86.743 17.142C86.7804 17.282 86.8597 17.3987 86.981 17.492C87.1117 17.5853 87.2564 17.632 87.415 17.632C87.611 17.632 87.779 17.562 87.919 17.422C88.0684 17.2727 88.143 17.1 88.143 16.904C88.143 16.6333 88.0684 16.3953 87.919 16.19C87.779 15.9847 87.5924 15.812 87.359 15.672C87.1257 15.532 86.8597 15.4247 86.561 15.35C86.2624 15.2753 85.959 15.238 85.651 15.238C85.1937 15.238 84.769 15.3313 84.377 15.518C83.9944 15.7047 83.663 15.952 83.383 16.26C83.103 16.568 82.8837 16.9273 82.725 17.338C82.5664 17.7393 82.487 18.164 82.487 18.612C82.487 19.088 82.5617 19.536 82.711 19.956C82.8697 20.376 83.0844 20.7447 83.355 21.062C83.6257 21.37 83.9524 21.6127 84.335 21.79C84.7177 21.958 85.133 22.042 85.581 22.042C85.9357 22.042 86.2624 21.9907 86.561 21.888C86.869 21.7853 87.1444 21.6407 87.387 21.454C87.6297 21.258 87.835 21.0387 88.003 20.796C88.171 20.544 88.297 20.278 88.381 19.998ZM103.697 16.82C103.697 16.2133 103.618 15.6767 103.459 15.21C103.31 14.734 103.105 14.3187 102.843 13.964C102.591 13.6 102.293 13.2873 101.947 13.026C101.602 12.7647 101.233 12.55 100.841 12.382C100.543 12.2513 100.239 12.1533 99.9315 12.088C99.6235 12.0227 99.3155 11.976 99.0075 11.948C98.6995 11.92 98.3915 11.906 98.0835 11.906C97.7848 11.906 97.4861 11.906 97.1875 11.906C96.1421 11.906 95.2508 11.9107 94.5135 11.92C93.7761 11.92 93.2115 11.92 92.8195 11.92V12.06C93.0621 12.088 93.2815 12.1347 93.4775 12.2C93.6735 12.2653 93.8415 12.382 93.9815 12.55C94.0375 12.6153 94.0795 12.7087 94.1075 12.83C94.1355 12.942 94.1541 13.0727 94.1635 13.222C94.1821 13.362 94.1915 13.516 94.1915 13.684C94.1915 13.852 94.1915 14.02 94.1915 14.188V16.918C94.1915 17.17 94.1915 17.4407 94.1915 17.73C94.1915 18.01 94.1868 18.2853 94.1775 18.556C94.1775 18.8173 94.1728 19.06 94.1635 19.284C94.1635 19.508 94.1635 19.6853 94.1635 19.816C94.1635 19.9653 94.1588 20.1193 94.1495 20.278C94.1401 20.4367 94.1261 20.586 94.1075 20.726C94.0888 20.866 94.0655 20.992 94.0375 21.104C94.0188 21.216 93.9861 21.2953 93.9395 21.342C93.8275 21.4727 93.6595 21.5847 93.4355 21.678C93.2208 21.7713 92.9968 21.832 92.7635 21.86V22H97.8735C98.3028 22 98.7461 21.972 99.2035 21.916C99.6608 21.8507 100.104 21.7433 100.533 21.594C100.963 21.4447 101.369 21.244 101.751 20.992C102.134 20.74 102.47 20.4227 102.759 20.04C103.049 19.6573 103.277 19.2 103.445 18.668C103.613 18.136 103.697 17.52 103.697 16.82ZM101.975 16.848C101.975 18.0707 101.723 19.102 101.219 19.942C100.725 20.7727 99.9735 21.3327 98.9655 21.622C98.7508 21.6873 98.5175 21.734 98.2655 21.762C98.0228 21.7807 97.7848 21.79 97.5515 21.79C97.2995 21.79 97.0288 21.7667 96.7395 21.72C96.4595 21.664 96.2261 21.5427 96.0395 21.356C95.9835 21.3 95.9321 21.216 95.8855 21.104C95.8481 20.9827 95.8201 20.852 95.8015 20.712C95.7828 20.5627 95.7641 20.4133 95.7455 20.264C95.7361 20.1053 95.7315 19.9607 95.7315 19.83C95.7221 19.522 95.7175 19.1253 95.7175 18.64C95.7175 18.1453 95.7175 17.5993 95.7175 17.002C95.7175 15.8913 95.7221 14.9347 95.7315 14.132C95.7408 13.3293 95.7688 12.6993 95.8155 12.242C95.8808 12.2233 95.9648 12.2093 96.0675 12.2C96.1795 12.1907 96.2961 12.1813 96.4175 12.172C96.5481 12.1533 96.6788 12.144 96.8095 12.144C96.9401 12.1347 97.0615 12.13 97.1735 12.13C97.5001 12.13 97.7755 12.144 97.9995 12.172C98.2235 12.1907 98.4288 12.2187 98.6155 12.256C99.1008 12.34 99.5488 12.5267 99.9595 12.816C100.37 13.1053 100.725 13.46 101.023 13.88C101.322 14.2907 101.555 14.7527 101.723 15.266C101.891 15.7793 101.975 16.3067 101.975 16.848ZM110.673 19.872L110.561 19.844C110.449 20.1893 110.216 20.4833 109.861 20.726C109.516 20.9593 109.11 21.076 108.643 21.076C108.214 21.076 107.836 20.9967 107.509 20.838C107.183 20.6793 106.912 20.4647 106.697 20.194C106.483 19.914 106.319 19.5967 106.207 19.242C106.095 18.878 106.039 18.5 106.039 18.108C106.039 18.0053 106.044 17.9073 106.053 17.814C106.063 17.7113 106.067 17.6227 106.067 17.548H110.561C110.533 17.156 110.445 16.8153 110.295 16.526C110.146 16.2367 109.95 15.9987 109.707 15.812C109.474 15.616 109.194 15.4713 108.867 15.378C108.55 15.2847 108.209 15.238 107.845 15.238C107.397 15.238 106.987 15.336 106.613 15.532C106.249 15.7187 105.937 15.966 105.675 16.274C105.423 16.582 105.227 16.932 105.087 17.324C104.947 17.7067 104.877 18.094 104.877 18.486C104.877 18.9713 104.952 19.4333 105.101 19.872C105.251 20.3013 105.461 20.6793 105.731 21.006C106.011 21.3233 106.347 21.5707 106.739 21.748C107.131 21.9253 107.565 22.014 108.041 22.014C108.424 22.014 108.769 21.944 109.077 21.804C109.395 21.664 109.665 21.4867 109.889 21.272C110.113 21.0573 110.291 20.824 110.421 20.572C110.552 20.3107 110.636 20.0773 110.673 19.872ZM109.175 16.736C109.175 16.8667 109.157 16.9647 109.119 17.03C109.091 17.0953 109.045 17.1653 108.979 17.24C108.886 17.2773 108.779 17.3007 108.657 17.31C108.536 17.3193 108.405 17.324 108.265 17.324C108.051 17.324 107.855 17.3287 107.677 17.338C107.5 17.338 107.327 17.3427 107.159 17.352C107.001 17.352 106.837 17.352 106.669 17.352C106.501 17.352 106.31 17.352 106.095 17.352C106.114 17.24 106.165 17.0813 106.249 16.876C106.333 16.6613 106.45 16.4513 106.599 16.246C106.758 16.0407 106.94 15.8633 107.145 15.714C107.36 15.5553 107.598 15.476 107.859 15.476C108.261 15.476 108.578 15.602 108.811 15.854C109.054 16.0967 109.175 16.3907 109.175 16.736ZM116.361 19.956C116.361 19.48 116.212 19.0787 115.913 18.752C115.624 18.4253 115.269 18.2107 114.849 18.108C114.672 18.0613 114.462 18.0147 114.219 17.968C113.977 17.912 113.753 17.8607 113.547 17.814C113.249 17.7393 113.001 17.6273 112.805 17.478C112.609 17.3287 112.511 17.0813 112.511 16.736C112.511 16.5213 112.549 16.3347 112.623 16.176C112.698 16.008 112.791 15.8727 112.903 15.77C113.025 15.658 113.16 15.574 113.309 15.518C113.468 15.462 113.627 15.434 113.785 15.434C114.047 15.434 114.275 15.4807 114.471 15.574C114.677 15.6673 114.859 15.8027 115.017 15.98C115.176 16.148 115.321 16.3533 115.451 16.596C115.582 16.8293 115.713 17.086 115.843 17.366L115.955 17.338L115.787 15.602C115.517 15.4993 115.232 15.4153 114.933 15.35C114.635 15.2753 114.289 15.238 113.897 15.238C113.589 15.238 113.3 15.2847 113.029 15.378C112.759 15.462 112.521 15.588 112.315 15.756C112.11 15.924 111.947 16.1247 111.825 16.358C111.704 16.5913 111.643 16.8527 111.643 17.142C111.643 17.562 111.751 17.9213 111.965 18.22C112.189 18.5187 112.479 18.7287 112.833 18.85C113.02 18.9153 113.23 18.976 113.463 19.032C113.697 19.088 113.939 19.1393 114.191 19.186C114.509 19.2513 114.756 19.382 114.933 19.578C115.12 19.7647 115.213 20.0027 115.213 20.292C115.213 20.824 115.078 21.2207 114.807 21.482C114.546 21.734 114.191 21.86 113.743 21.86C113.435 21.86 113.169 21.7947 112.945 21.664C112.721 21.524 112.53 21.3513 112.371 21.146C112.213 20.9313 112.077 20.7027 111.965 20.46C111.853 20.208 111.76 19.97 111.685 19.746H111.573V21.594C111.881 21.734 112.217 21.8413 112.581 21.916C112.945 21.9907 113.333 22.028 113.743 22.028C114.089 22.028 114.415 21.9907 114.723 21.916C115.041 21.8413 115.321 21.72 115.563 21.552C115.806 21.384 115.997 21.1693 116.137 20.908C116.287 20.6373 116.361 20.32 116.361 19.956ZM119.519 13.026C119.519 12.8113 119.444 12.634 119.295 12.494C119.155 12.354 118.978 12.284 118.763 12.284C118.548 12.284 118.366 12.354 118.217 12.494C118.077 12.634 118.007 12.8113 118.007 13.026C118.007 13.2313 118.082 13.4087 118.231 13.558C118.38 13.7073 118.558 13.782 118.763 13.782C118.978 13.782 119.155 13.712 119.295 13.572C119.444 13.4227 119.519 13.2407 119.519 13.026ZM120.303 22V21.86C120.21 21.8413 120.112 21.832 120.009 21.832C119.916 21.8227 119.827 21.8087 119.743 21.79C119.659 21.7713 119.584 21.7433 119.519 21.706C119.463 21.6593 119.426 21.5893 119.407 21.496V15.238H119.323L117.433 15.854V15.938C117.564 15.9847 117.685 16.036 117.797 16.092C117.918 16.148 118.021 16.204 118.105 16.26C118.17 16.3067 118.208 16.358 118.217 16.414C118.236 16.47 118.245 16.5353 118.245 16.61V21.412C118.245 21.496 118.212 21.566 118.147 21.622C118.091 21.678 118.016 21.7247 117.923 21.762C117.839 21.79 117.741 21.8133 117.629 21.832C117.517 21.8413 117.405 21.8507 117.293 21.86V22H120.303ZM128.586 16.008C128.586 15.8493 128.534 15.714 128.432 15.602C128.329 15.49 128.198 15.434 128.04 15.434C127.928 15.434 127.83 15.4527 127.746 15.49C127.662 15.518 127.582 15.5553 127.508 15.602C127.433 15.6393 127.349 15.6767 127.256 15.714C127.172 15.742 127.074 15.756 126.962 15.756C126.85 15.756 126.752 15.7513 126.668 15.742C126.593 15.7327 126.5 15.7093 126.388 15.672C126.089 15.5133 125.8 15.4013 125.52 15.336C125.249 15.2707 124.936 15.238 124.582 15.238C124.19 15.238 123.826 15.294 123.49 15.406C123.163 15.518 122.878 15.672 122.636 15.868C122.393 16.0547 122.202 16.2787 122.062 16.54C121.931 16.8013 121.866 17.0813 121.866 17.38C121.866 17.856 121.978 18.248 122.202 18.556C122.435 18.864 122.757 19.0973 123.168 19.256V19.298C122.934 19.326 122.715 19.3867 122.51 19.48C122.314 19.564 122.141 19.6713 121.992 19.802C121.842 19.9327 121.726 20.0773 121.642 20.236C121.558 20.3947 121.516 20.5627 121.516 20.74C121.516 21.0947 121.642 21.3793 121.894 21.594C122.155 21.8087 122.524 21.944 123 22V22.028C122.804 22.1493 122.603 22.2707 122.398 22.392C122.202 22.5227 122.02 22.658 121.852 22.798C121.693 22.9473 121.558 23.1013 121.446 23.26C121.343 23.4187 121.292 23.596 121.292 23.792C121.292 24.324 121.572 24.7393 122.132 25.038C122.701 25.346 123.494 25.5 124.512 25.5C125.044 25.5 125.529 25.4253 125.968 25.276C126.416 25.136 126.803 24.94 127.13 24.688C127.456 24.436 127.708 24.142 127.886 23.806C128.072 23.4793 128.166 23.134 128.166 22.77C128.166 22.49 128.114 22.2333 128.012 22C127.918 21.776 127.778 21.5753 127.592 21.398C127.405 21.2207 127.181 21.0807 126.92 20.978C126.658 20.8753 126.364 20.824 126.038 20.824H123.798C123.639 20.824 123.476 20.8147 123.308 20.796C123.14 20.7773 122.986 20.74 122.846 20.684C122.706 20.628 122.589 20.5533 122.496 20.46C122.402 20.3573 122.356 20.2313 122.356 20.082C122.356 19.8953 122.444 19.7413 122.622 19.62C122.799 19.4987 123.037 19.4287 123.336 19.41C123.522 19.41 123.681 19.4193 123.812 19.438C123.952 19.4567 124.087 19.466 124.218 19.466C125.123 19.466 125.832 19.284 126.346 18.92C126.859 18.5467 127.116 17.9913 127.116 17.254C127.116 16.9553 127.064 16.7127 126.962 16.526C126.868 16.3393 126.752 16.1387 126.612 15.924L126.668 15.868C126.78 15.9333 126.906 16.008 127.046 16.092C127.186 16.1667 127.321 16.2367 127.452 16.302C127.592 16.3673 127.718 16.4233 127.83 16.47C127.942 16.5167 128.026 16.54 128.082 16.54C128.222 16.54 128.338 16.4887 128.432 16.386C128.534 16.274 128.586 16.148 128.586 16.008ZM125.996 17.254C125.996 17.5153 125.963 17.7673 125.898 18.01C125.832 18.2433 125.734 18.4533 125.604 18.64C125.473 18.8267 125.31 18.976 125.114 19.088C124.927 19.2 124.708 19.256 124.456 19.256C124.045 19.256 123.695 19.088 123.406 18.752C123.126 18.4067 122.986 17.954 122.986 17.394C122.986 17.1513 123.018 16.9133 123.084 16.68C123.149 16.4467 123.242 16.2413 123.364 16.064C123.494 15.8773 123.653 15.7327 123.84 15.63C124.026 15.518 124.236 15.462 124.47 15.462C124.722 15.462 124.941 15.5133 125.128 15.616C125.324 15.7093 125.482 15.84 125.604 16.008C125.734 16.1667 125.832 16.3533 125.898 16.568C125.963 16.7827 125.996 17.0113 125.996 17.254ZM127.228 23.344C127.228 23.7453 127.102 24.0907 126.85 24.38C126.607 24.6693 126.322 24.8793 125.996 25.01C125.837 25.066 125.655 25.108 125.45 25.136C125.254 25.164 125.016 25.178 124.736 25.178C124.502 25.178 124.246 25.1407 123.966 25.066C123.695 24.9913 123.438 24.8747 123.196 24.716C122.953 24.5667 122.748 24.38 122.58 24.156C122.421 23.932 122.342 23.6707 122.342 23.372C122.342 23.0827 122.426 22.8167 122.594 22.574C122.762 22.3313 123.065 22.154 123.504 22.042C123.634 22.0233 123.802 22.0047 124.008 21.986C124.213 21.9673 124.414 21.958 124.61 21.958C125.151 21.958 125.576 21.9767 125.884 22.014C126.192 22.0607 126.448 22.1353 126.654 22.238C126.812 22.3127 126.948 22.448 127.06 22.644C127.172 22.84 127.228 23.0733 127.228 23.344ZM136.119 22V21.874C136.035 21.8647 135.942 21.8553 135.839 21.846C135.746 21.8273 135.657 21.8087 135.573 21.79C135.489 21.762 135.415 21.7247 135.349 21.678C135.293 21.6313 135.265 21.5753 135.265 21.51V17.394C135.265 16.7593 135.121 16.2413 134.831 15.84C134.542 15.4387 134.127 15.238 133.585 15.238C133.333 15.238 133.091 15.2893 132.857 15.392C132.624 15.4853 132.409 15.6067 132.213 15.756C132.017 15.9053 131.84 16.0733 131.681 16.26C131.532 16.4373 131.406 16.6053 131.303 16.764L131.275 16.75V15.238H131.191L129.357 15.896V15.98C129.469 16.0267 129.581 16.0827 129.693 16.148C129.805 16.204 129.903 16.2553 129.987 16.302C130.053 16.3487 130.09 16.3907 130.099 16.428C130.118 16.4653 130.127 16.5213 130.127 16.596V21.412C130.127 21.5613 130.048 21.6687 129.889 21.734C129.74 21.7993 129.558 21.8413 129.343 21.86V22H132.045V21.86C131.952 21.8413 131.863 21.832 131.779 21.832C131.695 21.8227 131.621 21.8087 131.555 21.79C131.49 21.7713 131.434 21.7433 131.387 21.706C131.341 21.6593 131.308 21.5893 131.289 21.496V16.904C131.541 16.652 131.77 16.4607 131.975 16.33C132.181 16.1993 132.437 16.134 132.745 16.134C133.231 16.134 133.576 16.302 133.781 16.638C133.987 16.9647 134.089 17.3987 134.089 17.94V21.468C134.089 21.6173 134.015 21.7153 133.865 21.762C133.716 21.7993 133.515 21.8273 133.263 21.846V22H136.119ZM145.077 22V21.86C144.881 21.8413 144.662 21.79 144.419 21.706C144.177 21.622 143.999 21.5007 143.887 21.342C143.813 21.2393 143.771 21.062 143.761 20.81C143.752 20.558 143.747 20.2967 143.747 20.026V16.862C143.747 16.5727 143.747 16.3067 143.747 16.064C143.747 15.812 143.747 15.5693 143.747 15.336C143.747 15.1027 143.747 14.874 143.747 14.65C143.757 14.4167 143.761 14.1833 143.761 13.95C143.771 13.7353 143.775 13.5067 143.775 13.264C143.785 13.0213 143.831 12.8207 143.915 12.662C144.037 12.438 144.209 12.2887 144.433 12.214C144.657 12.1393 144.867 12.088 145.063 12.06V11.92H140.877V12.06C141.12 12.088 141.335 12.1393 141.521 12.214C141.717 12.2793 141.881 12.3913 142.011 12.55C142.067 12.6153 142.109 12.7087 142.137 12.83C142.165 12.942 142.184 13.0727 142.193 13.222C142.212 13.362 142.221 13.516 142.221 13.684C142.221 13.852 142.221 14.02 142.221 14.188V16.918C142.221 17.17 142.221 17.4407 142.221 17.73C142.221 18.01 142.217 18.2853 142.207 18.556C142.207 18.8173 142.203 19.06 142.193 19.284C142.193 19.508 142.193 19.6853 142.193 19.816C142.193 19.9653 142.189 20.1193 142.179 20.278C142.179 20.4273 142.17 20.572 142.151 20.712C142.142 20.852 142.123 20.9733 142.095 21.076C142.077 21.1787 142.044 21.258 141.997 21.314C141.857 21.4727 141.685 21.594 141.479 21.678C141.283 21.762 141.069 21.8227 140.835 21.86V22H145.077ZM153.451 22V21.874C153.367 21.8647 153.274 21.8553 153.171 21.846C153.078 21.8273 152.989 21.8087 152.905 21.79C152.821 21.762 152.747 21.7247 152.681 21.678C152.625 21.6313 152.597 21.5753 152.597 21.51V17.394C152.597 16.7593 152.453 16.2413 152.163 15.84C151.874 15.4387 151.459 15.238 150.917 15.238C150.665 15.238 150.423 15.2893 150.189 15.392C149.956 15.4853 149.741 15.6067 149.545 15.756C149.349 15.9053 149.172 16.0733 149.013 16.26C148.864 16.4373 148.738 16.6053 148.635 16.764L148.607 16.75V15.238H148.523L146.689 15.896V15.98C146.801 16.0267 146.913 16.0827 147.025 16.148C147.137 16.204 147.235 16.2553 147.319 16.302C147.385 16.3487 147.422 16.3907 147.431 16.428C147.45 16.4653 147.459 16.5213 147.459 16.596V21.412C147.459 21.5613 147.38 21.6687 147.221 21.734C147.072 21.7993 146.89 21.8413 146.675 21.86V22H149.377V21.86C149.284 21.8413 149.195 21.832 149.111 21.832C149.027 21.8227 148.953 21.8087 148.887 21.79C148.822 21.7713 148.766 21.7433 148.719 21.706C148.673 21.6593 148.64 21.5893 148.621 21.496V16.904C148.873 16.652 149.102 16.4607 149.307 16.33C149.513 16.1993 149.769 16.134 150.077 16.134C150.563 16.134 150.908 16.302 151.113 16.638C151.319 16.9647 151.421 17.3987 151.421 17.94V21.468C151.421 21.6173 151.347 21.7153 151.197 21.762C151.048 21.7993 150.847 21.8273 150.595 21.846V22H153.451ZM159.25 19.956C159.25 19.48 159.101 19.0787 158.802 18.752C158.513 18.4253 158.158 18.2107 157.738 18.108C157.561 18.0613 157.351 18.0147 157.108 17.968C156.865 17.912 156.641 17.8607 156.436 17.814C156.137 17.7393 155.89 17.6273 155.694 17.478C155.498 17.3287 155.4 17.0813 155.4 16.736C155.4 16.5213 155.437 16.3347 155.512 16.176C155.587 16.008 155.68 15.8727 155.792 15.77C155.913 15.658 156.049 15.574 156.198 15.518C156.357 15.462 156.515 15.434 156.674 15.434C156.935 15.434 157.164 15.4807 157.36 15.574C157.565 15.6673 157.747 15.8027 157.906 15.98C158.065 16.148 158.209 16.3533 158.34 16.596C158.471 16.8293 158.601 17.086 158.732 17.366L158.844 17.338L158.676 15.602C158.405 15.4993 158.121 15.4153 157.822 15.35C157.523 15.2753 157.178 15.238 156.786 15.238C156.478 15.238 156.189 15.2847 155.918 15.378C155.647 15.462 155.409 15.588 155.204 15.756C154.999 15.924 154.835 16.1247 154.714 16.358C154.593 16.5913 154.532 16.8527 154.532 17.142C154.532 17.562 154.639 17.9213 154.854 18.22C155.078 18.5187 155.367 18.7287 155.722 18.85C155.909 18.9153 156.119 18.976 156.352 19.032C156.585 19.088 156.828 19.1393 157.08 19.186C157.397 19.2513 157.645 19.382 157.822 19.578C158.009 19.7647 158.102 20.0027 158.102 20.292C158.102 20.824 157.967 21.2207 157.696 21.482C157.435 21.734 157.08 21.86 156.632 21.86C156.324 21.86 156.058 21.7947 155.834 21.664C155.61 21.524 155.419 21.3513 155.26 21.146C155.101 20.9313 154.966 20.7027 154.854 20.46C154.742 20.208 154.649 19.97 154.574 19.746H154.462V21.594C154.77 21.734 155.106 21.8413 155.47 21.916C155.834 21.9907 156.221 22.028 156.632 22.028C156.977 22.028 157.304 21.9907 157.612 21.916C157.929 21.8413 158.209 21.72 158.452 21.552C158.695 21.384 158.886 21.1693 159.026 20.908C159.175 20.6373 159.25 20.32 159.25 19.956ZM164.844 15.378H162.254V14.16H162.142L160.112 16.078V16.232H161.134C161.134 16.848 161.129 17.5527 161.12 18.346C161.11 19.13 161.106 19.9607 161.106 20.838C161.106 20.9873 161.148 21.1367 161.232 21.286C161.325 21.426 161.442 21.5567 161.582 21.678C161.722 21.79 161.88 21.8787 162.058 21.944C162.244 22 162.436 22.028 162.632 22.028C162.93 22.028 163.187 21.9953 163.402 21.93C163.626 21.8553 163.817 21.7573 163.976 21.636C164.144 21.5053 164.274 21.3653 164.368 21.216C164.47 21.0573 164.55 20.908 164.606 20.768L164.522 20.726C164.391 20.9127 164.237 21.0527 164.06 21.146C163.882 21.23 163.658 21.272 163.388 21.272C163.061 21.272 162.795 21.1647 162.59 20.95C162.384 20.7353 162.282 20.39 162.282 19.914V16.232H164.41L164.844 15.378ZM167.447 13.026C167.447 12.8113 167.372 12.634 167.223 12.494C167.083 12.354 166.905 12.284 166.691 12.284C166.476 12.284 166.294 12.354 166.145 12.494C166.005 12.634 165.935 12.8113 165.935 13.026C165.935 13.2313 166.009 13.4087 166.159 13.558C166.308 13.7073 166.485 13.782 166.691 13.782C166.905 13.782 167.083 13.712 167.223 13.572C167.372 13.4227 167.447 13.2407 167.447 13.026ZM168.231 22V21.86C168.137 21.8413 168.039 21.832 167.937 21.832C167.843 21.8227 167.755 21.8087 167.671 21.79C167.587 21.7713 167.512 21.7433 167.447 21.706C167.391 21.6593 167.353 21.5893 167.335 21.496V15.238H167.251L165.361 15.854V15.938C165.491 15.9847 165.613 16.036 165.725 16.092C165.846 16.148 165.949 16.204 166.033 16.26C166.098 16.3067 166.135 16.358 166.145 16.414C166.163 16.47 166.173 16.5353 166.173 16.61V21.412C166.173 21.496 166.14 21.566 166.075 21.622C166.019 21.678 165.944 21.7247 165.851 21.762C165.767 21.79 165.669 21.8133 165.557 21.832C165.445 21.8413 165.333 21.8507 165.221 21.86V22H168.231ZM173.937 15.378H171.347V14.16H171.235L169.205 16.078V16.232H170.227C170.227 16.848 170.223 17.5527 170.213 18.346C170.204 19.13 170.199 19.9607 170.199 20.838C170.199 20.9873 170.241 21.1367 170.325 21.286C170.419 21.426 170.535 21.5567 170.675 21.678C170.815 21.79 170.974 21.8787 171.151 21.944C171.338 22 171.529 22.028 171.725 22.028C172.024 22.028 172.281 21.9953 172.495 21.93C172.719 21.8553 172.911 21.7573 173.069 21.636C173.237 21.5053 173.368 21.3653 173.461 21.216C173.564 21.0573 173.643 20.908 173.699 20.768L173.615 20.726C173.485 20.9127 173.331 21.0527 173.153 21.146C172.976 21.23 172.752 21.272 172.481 21.272C172.155 21.272 171.889 21.1647 171.683 20.95C171.478 20.7353 171.375 20.39 171.375 19.914V16.232H173.503L173.937 15.378ZM181.147 21.65V21.566C181.035 21.5193 180.895 21.4587 180.727 21.384C180.568 21.3093 180.447 21.2487 180.363 21.202C180.297 21.1553 180.255 21.1133 180.237 21.076C180.227 21.0387 180.223 20.9827 180.223 20.908V15.378H177.871V15.532C178.076 15.5507 178.272 15.574 178.459 15.602C178.655 15.63 178.809 15.6673 178.921 15.714C178.977 15.7887 179.014 15.9007 179.033 16.05C179.051 16.19 179.061 16.3067 179.061 16.4V20.39C178.977 20.502 178.883 20.6093 178.781 20.712C178.687 20.8147 178.58 20.908 178.459 20.992C178.347 21.0667 178.216 21.132 178.067 21.188C177.927 21.2347 177.759 21.258 177.562 21.258C177.049 21.258 176.699 21.1133 176.513 20.824C176.326 20.5253 176.233 20.068 176.233 19.452V15.378H174.062V15.532C174.147 15.5413 174.235 15.5507 174.329 15.56C174.422 15.56 174.511 15.5693 174.595 15.588C174.679 15.6067 174.753 15.6347 174.819 15.672C174.893 15.7093 174.949 15.77 174.986 15.854C175.005 15.882 175.015 15.9287 175.015 15.994C175.024 16.05 175.033 16.1153 175.043 16.19C175.052 16.2553 175.057 16.3207 175.057 16.386C175.057 16.4513 175.057 16.5027 175.057 16.54V19.956C175.057 20.6373 175.197 21.1553 175.477 21.51C175.766 21.8647 176.209 22.042 176.807 22.042C177.068 22.042 177.311 22 177.535 21.916C177.768 21.832 177.978 21.72 178.165 21.58C178.351 21.4307 178.519 21.2673 178.669 21.09C178.818 20.9127 178.944 20.7447 179.047 20.586L179.061 20.6V22.014H179.159L181.147 21.65ZM186.805 15.378H184.215V14.16H184.103L182.073 16.078V16.232H183.095C183.095 16.848 183.09 17.5527 183.081 18.346C183.071 19.13 183.067 19.9607 183.067 20.838C183.067 20.9873 183.109 21.1367 183.193 21.286C183.286 21.426 183.403 21.5567 183.543 21.678C183.683 21.79 183.841 21.8787 184.019 21.944C184.205 22 184.397 22.028 184.593 22.028C184.891 22.028 185.148 21.9953 185.363 21.93C185.587 21.8553 185.778 21.7573 185.937 21.636C186.105 21.5053 186.235 21.3653 186.329 21.216C186.431 21.0573 186.511 20.908 186.567 20.768L186.483 20.726C186.352 20.9127 186.198 21.0527 186.021 21.146C185.843 21.23 185.619 21.272 185.349 21.272C185.022 21.272 184.756 21.1647 184.551 20.95C184.345 20.7353 184.243 20.39 184.243 19.914V16.232H186.371L186.805 15.378ZM192.992 19.872L192.88 19.844C192.768 20.1893 192.534 20.4833 192.18 20.726C191.834 20.9593 191.428 21.076 190.962 21.076C190.532 21.076 190.154 20.9967 189.828 20.838C189.501 20.6793 189.23 20.4647 189.016 20.194C188.801 19.914 188.638 19.5967 188.526 19.242C188.414 18.878 188.358 18.5 188.358 18.108C188.358 18.0053 188.362 17.9073 188.372 17.814C188.381 17.7113 188.386 17.6227 188.386 17.548H192.88C192.852 17.156 192.763 16.8153 192.614 16.526C192.464 16.2367 192.268 15.9987 192.026 15.812C191.792 15.616 191.512 15.4713 191.186 15.378C190.868 15.2847 190.528 15.238 190.164 15.238C189.716 15.238 189.305 15.336 188.932 15.532C188.568 15.7187 188.255 15.966 187.994 16.274C187.742 16.582 187.546 16.932 187.406 17.324C187.266 17.7067 187.196 18.094 187.196 18.486C187.196 18.9713 187.27 19.4333 187.42 19.872C187.569 20.3013 187.779 20.6793 188.05 21.006C188.33 21.3233 188.666 21.5707 189.058 21.748C189.45 21.9253 189.884 22.014 190.36 22.014C190.742 22.014 191.088 21.944 191.396 21.804C191.713 21.664 191.984 21.4867 192.208 21.272C192.432 21.0573 192.609 20.824 192.74 20.572C192.87 20.3107 192.954 20.0773 192.992 19.872ZM191.494 16.736C191.494 16.8667 191.475 16.9647 191.438 17.03C191.41 17.0953 191.363 17.1653 191.298 17.24C191.204 17.2773 191.097 17.3007 190.976 17.31C190.854 17.3193 190.724 17.324 190.584 17.324C190.369 17.324 190.173 17.3287 189.996 17.338C189.818 17.338 189.646 17.3427 189.478 17.352C189.319 17.352 189.156 17.352 188.988 17.352C188.82 17.352 188.628 17.352 188.414 17.352C188.432 17.24 188.484 17.0813 188.568 16.876C188.652 16.6613 188.768 16.4513 188.918 16.246C189.076 16.0407 189.258 15.8633 189.464 15.714C189.678 15.5553 189.916 15.476 190.178 15.476C190.579 15.476 190.896 15.602 191.13 15.854C191.372 16.0967 191.494 16.3907 191.494 16.736Z" fill="white"/>
<g clip-path="url(#clip0)">
<path d="M32 16C32 17.9752 31.6408 19.8664 30.9864 21.6128C30.1144 22.7776 28.9072 23.5824 27.3632 24.0248C26.9816 24.1408 26.5712 24.22 26.132 24.2608C25.6928 24.3024 25.2656 24.3232 24.8512 24.3232C24.4032 24.3232 23.9264 24.2776 23.4208 24.1864C22.9144 24.0952 22.496 23.884 22.1648 23.552C22.0656 23.4528 21.9784 23.2992 21.904 23.092C21.8296 22.8848 21.7752 22.6528 21.7424 22.3952C21.7088 22.1384 21.68 21.8728 21.6552 21.5992C21.6304 21.3256 21.6176 21.0728 21.6176 20.8408C21.6008 20.2936 21.5928 19.5888 21.5928 18.7264C21.5928 17.848 21.5928 16.8776 21.5928 15.816C21.5928 13.8432 21.6008 12.1432 21.6176 10.7168C21.6336 9.2912 21.684 8.172 21.7672 7.3592C21.8832 7.3264 22.0368 7.3016 22.2272 7.2848C22.4176 7.2688 22.6248 7.2472 22.8488 7.2224C23.0728 7.1976 23.3 7.1808 23.5328 7.1728C23.7648 7.1648 23.9808 7.16 24.1792 7.16C24.7592 7.16 25.2488 7.1808 25.6464 7.2224C26.044 7.264 26.4088 7.3184 26.7408 7.384C27.6024 7.5336 28.3984 7.8648 29.1288 8.3792C29.7816 8.8392 30.3544 9.3896 30.848 10.0288C31.5904 11.8752 32 13.8896 32 16ZM11.7888 1.2328C12.5512 1.4072 13.1944 1.5976 13.7168 1.8048C14.2392 2.012 14.6408 2.2024 14.9232 2.3768C15.2048 2.5512 15.3624 2.6376 15.396 2.6376C15.4288 2.6376 15.52 2.5384 15.6696 2.3392C15.8192 2.14 16.0008 1.9 16.2168 1.6176H16.4408V7.04H16.1424C15.96 6.2936 15.6864 5.5896 15.3216 4.9256C14.9568 4.2624 14.5672 3.7152 14.1528 3.284C13.6216 2.7208 12.9424 2.264 12.1136 1.916C11.3184 1.5824 10.4312 1.4104 9.4536 1.396C6.6608 2.6512 4.2952 4.6808 2.6288 7.2128C2.3528 8.1968 2.2136 9.2256 2.2136 10.2992C2.2136 11.5928 2.3712 12.7736 2.6864 13.8432C3.0008 14.9128 3.4576 15.8288 4.0544 16.5912C4.6512 17.3544 5.3808 17.9464 6.2432 18.3696C7.1048 18.7928 8.092 19.004 9.2032 19.004C9.9992 19.004 10.7408 18.8672 11.4296 18.5936C12.1176 18.32 12.6608 17.8768 13.0584 17.2632C13.1912 17.048 13.2904 16.6664 13.3568 16.1192C13.4232 15.572 13.456 15.0088 13.456 14.428C13.456 13.848 13.4272 13.3256 13.3688 12.8608C13.3104 12.3968 13.1408 12.0152 12.8592 11.7168C12.4776 11.2856 11.8064 11.0288 10.8448 10.9456V10.6968H18.132V10.9456C17.8496 10.9792 17.5432 11.0496 17.212 11.1568C16.88 11.2648 16.64 11.4344 16.4904 11.6664C16.3744 11.8488 16.308 12.1312 16.2912 12.512C16.2744 12.8936 16.2664 13.2752 16.2664 13.656V17.2872C16.1504 17.3864 15.864 17.5528 15.408 17.7848C14.952 18.0176 14.3968 18.2536 13.7416 18.4936C13.3384 18.6416 12.908 18.7752 12.452 18.8952H18.8464V19.144C18.4984 19.1936 18.1248 19.2848 17.7272 19.4176C17.3296 19.5504 17.0224 19.8152 16.8072 20.2136C16.6576 20.496 16.5792 20.852 16.5712 21.2832C16.5624 21.7144 16.5504 22.1208 16.5336 22.5016C16.5336 22.916 16.5296 23.3264 16.5208 23.7328C16.516 23.9616 16.5128 24.1928 16.5112 24.424C16.8672 24.3672 17.2144 24.268 17.552 24.124C17.9416 23.9584 18.236 23.7592 18.4352 23.5272C18.5176 23.4448 18.58 23.3032 18.6216 23.104C18.6624 22.9048 18.7 22.6808 18.7336 22.4328C18.7664 22.184 18.7912 21.9192 18.808 21.6368C18.824 21.3552 18.8328 21.0816 18.8328 20.816C18.8328 20.584 18.8368 20.2688 18.8456 19.8712C18.8536 19.4736 18.8616 19.0376 18.8704 18.5656C18.8784 18.0928 18.8832 17.608 18.8832 17.1104C18.8832 16.5968 18.8832 16.1152 18.8832 15.668V10.8176C18.8832 10.5192 18.8832 10.2208 18.8832 9.9224C18.8832 9.624 18.8704 9.3464 18.8456 9.0888C18.8208 8.832 18.7832 8.6 18.7336 8.392C18.684 8.1848 18.6096 8.0232 18.5096 7.9072C18.2608 7.6088 17.9624 7.4016 17.6144 7.2856C17.2664 7.1696 16.876 7.0864 16.4456 7.0368V6.788C17.1424 6.788 18.1448 6.784 19.4552 6.7752C20.7648 6.7672 22.3488 6.7624 24.2056 6.7624C24.736 6.7624 25.2664 6.7624 25.7976 6.7624C26.3448 6.7624 26.892 6.7872 27.4392 6.8368C27.9864 6.8864 28.5336 6.9696 29.0808 7.0856C29.1632 7.1032 29.2456 7.1224 29.328 7.1424C26.4592 2.8384 21.5616 0 16 0C14.0176 0 12.1192 0.3616 10.3672 1.0208C10.8784 1.064 11.3528 1.1336 11.7888 1.2328ZM13.784 30.6728C13.792 30.2 13.7968 29.7152 13.7968 29.2176C13.7968 28.704 13.7968 28.2224 13.7968 27.7752V22.9248C13.7968 22.6264 13.7968 22.328 13.7968 22.0296C13.7968 21.7312 13.784 21.4536 13.7592 21.196C13.7344 20.9392 13.6968 20.7072 13.6472 20.4992C13.5976 20.292 13.5232 20.1304 13.4232 20.0144C13.1904 19.7328 12.9048 19.5296 12.5648 19.4048C12.2248 19.2808 11.8392 19.1936 11.408 19.144V19.1336C10.664 19.2784 9.92 19.352 9.1768 19.352C7.6016 19.352 6.192 19.1488 4.9488 18.7424C3.7048 18.336 2.656 17.7392 1.8024 16.9512C1.08 16.2856 0.5008 15.4944 0.0632 14.5792C0.0224 15.048 0 15.5216 0 16C0 24.0768 5.9848 30.7544 13.7616 31.8432C13.7688 31.4824 13.7768 31.0936 13.784 30.6728ZM27.7856 24.5352C26.9728 24.6432 26.1856 24.6968 25.4224 24.6968H16.5088C16.5088 24.7864 16.5072 24.8752 16.5072 24.9648C16.5072 25.3792 16.5072 25.8104 16.5072 26.2584C16.5072 26.6896 16.5072 27.1624 16.5072 27.676V31.9912C22.18 31.8144 27.108 28.6848 29.8064 24.088C29.1512 24.2944 28.4776 24.4432 27.7856 24.5352Z" fill="url(#paint0_linear)"/>
</g>
<defs>
<linearGradient id="paint0_linear" x1="3.97422" y1="30.5897" x2="25.2309" y2="4.80115" gradientUnits="userSpaceOnUse">
<stop offset="0.0314" stop-color="white"/>
<stop offset="1" stop-color="#B3B4B4"/>
</linearGradient>
<clipPath id="clip0">
<rect width="32" height="31.9912" fill="white"/>
</clipPath>
</defs>
</svg>
