<svg width="148" height="32" viewBox="0 0 148 32" fill="none" xmlns="http://www.w3.org/2000/svg">
<path fill-rule="evenodd" clip-rule="evenodd" d="M23.7679 8.68571L32.0001 8.68571L32.0001 14.4762L23.7679 14.4762L17.5943 14.4762H17.4386L17.4386 0H23.7679L23.7679 8.68571ZM17.4386 32L17.4386 23.3853L17.4386 16.7619L31.8444 16.7619V23.3853L23.201 23.3853L23.201 32H17.4386Z" fill="url(#paint0_linear)"/>
<path fill-rule="evenodd" clip-rule="evenodd" d="M15.164 0L15.164 14.4762V14.6326L3.13592e-06 14.6326L3.41258e-06 8.27232H9.09841L9.09841 0H15.164ZM8.57286 16.7619L15.1641 16.7619L15.1641 32L8.57286 32L8.57286 22.8571L0 22.8571L2.93524e-06 16.7619L8.57286 16.7619Z" fill="url(#paint1_linear)"/>
<path d="M16.6895 20H12.0371V11.5977H13.4316V18.8223H16.6895V20Z" fill="white"/>
<path d="M25.627 20H24.0977L23.3418 17.8613H20.0371L19.3105 20H17.7871L20.9336 11.5977H22.5039L25.627 20ZM22.9727 16.7246L21.8066 13.373C21.7715 13.2637 21.7344 13.0879 21.6953 12.8457H21.6719C21.6367 13.0684 21.5977 13.2441 21.5547 13.373L20.4004 16.7246H22.9727Z" fill="white"/>
<path d="M36.3105 20H34.9277V14.5625C34.9277 14.1172 34.9551 13.5723 35.0098 12.9277H34.9863C34.9004 13.2949 34.8242 13.5586 34.7578 13.7188L32.25 20H31.2891L28.7754 13.7656C28.7051 13.582 28.6309 13.3027 28.5527 12.9277H28.5293C28.5605 13.2637 28.5762 13.8125 28.5762 14.5742V20H27.2871V11.5977H29.25L31.459 17.1934C31.627 17.623 31.7363 17.9434 31.7871 18.1543H31.8164C31.9609 17.7129 32.0781 17.3848 32.168 17.1699L34.418 11.5977H36.3105V20Z" fill="white"/>
<path d="M46.0098 20H44.4863L40.4727 13.8242C40.3711 13.668 40.2871 13.5059 40.2207 13.3379H40.1855C40.2168 13.5176 40.2324 13.9023 40.2324 14.4922V20H38.8848V11.5977H40.5078L44.3867 17.627C44.5508 17.877 44.6562 18.0488 44.7031 18.1426H44.7266C44.6875 17.9199 44.668 17.543 44.668 17.0117V11.5977H46.0098V20Z" fill="white"/>
<path d="M55.498 20H53.9688L53.2129 17.8613H49.9082L49.1816 20H47.6582L50.8047 11.5977H52.375L55.498 20ZM52.8438 16.7246L51.6777 13.373C51.6426 13.2637 51.6055 13.0879 51.5664 12.8457H51.543C51.5078 13.0684 51.4688 13.2441 51.4258 13.373L50.2715 16.7246H52.8438Z" fill="white"/>
<path d="M67.7129 20H66.3125V16.3555H62.3574V20H60.9629V11.5977H62.3574V15.1309H66.3125V11.5977H67.7129V20Z" fill="white"/>
<path d="M75.2148 17.3691H71.125C71.1406 17.9238 71.3105 18.3516 71.6348 18.6523C71.9629 18.9531 72.4121 19.1035 72.9824 19.1035C73.623 19.1035 74.2109 18.9121 74.7461 18.5293V19.625C74.1992 19.9688 73.4766 20.1406 72.5781 20.1406C71.6953 20.1406 71.002 19.8691 70.498 19.3262C69.998 18.7793 69.748 18.0117 69.748 17.0234C69.748 16.0898 70.0234 15.3301 70.5742 14.7441C71.1289 14.1543 71.8164 13.8594 72.6367 13.8594C73.457 13.8594 74.0918 14.123 74.541 14.6504C74.9902 15.1777 75.2148 15.9102 75.2148 16.8477V17.3691ZM73.9023 16.4082C73.8984 15.9199 73.7832 15.541 73.5566 15.2715C73.3301 14.998 73.0176 14.8613 72.6191 14.8613C72.2285 14.8613 71.8965 15.0039 71.623 15.2891C71.3535 15.5742 71.1875 15.9473 71.125 16.4082H73.9023Z" fill="white"/>
<path d="M81.6152 20H80.2969V19.0625H80.2734C79.8594 19.7812 79.252 20.1406 78.4512 20.1406C77.8613 20.1406 77.3984 19.9805 77.0625 19.6602C76.7305 19.3398 76.5645 18.916 76.5645 18.3887C76.5645 17.2559 77.2168 16.5957 78.5215 16.4082L80.3027 16.1562C80.3027 15.3008 79.8965 14.873 79.084 14.873C78.3691 14.873 77.7246 15.1191 77.1504 15.6113V14.4219C77.7832 14.0469 78.5137 13.8594 79.3418 13.8594C80.8574 13.8594 81.6152 14.6055 81.6152 16.0977V20ZM80.3027 17.0527L79.043 17.2285C78.6523 17.2793 78.3574 17.375 78.1582 17.5156C77.9629 17.6523 77.8652 17.8945 77.8652 18.2422C77.8652 18.4961 77.9551 18.7051 78.1348 18.8691C78.3184 19.0293 78.5625 19.1094 78.8672 19.1094C79.2812 19.1094 79.623 18.9648 79.8926 18.6758C80.166 18.3828 80.3027 18.0156 80.3027 17.5742V17.0527Z" fill="white"/>
<path d="M85.1445 20H83.7793V11.1172H85.1445V20Z" fill="white"/>
<path d="M90.584 19.9355C90.3184 20.0684 89.9688 20.1348 89.5352 20.1348C88.3711 20.1348 87.7891 19.5762 87.7891 18.459V15.0664H86.7871V14H87.7891V12.6113L89.1484 12.2246V14H90.584V15.0664H89.1484V18.0664C89.1484 18.4219 89.2129 18.6758 89.3418 18.8281C89.4707 18.9805 89.6855 19.0566 89.9863 19.0566C90.2168 19.0566 90.416 18.9902 90.584 18.8574V19.9355Z" fill="white"/>
<path d="M97.5879 20H96.2285V16.7188C96.2285 15.5312 95.832 14.9375 95.0391 14.9375C94.6406 14.9375 94.3047 15.1094 94.0312 15.4531C93.7578 15.7969 93.6211 16.2363 93.6211 16.7715V20H92.2559V11.1172H93.6211V14.9961H93.6445C94.0977 14.2383 94.7461 13.8594 95.5898 13.8594C96.9219 13.8594 97.5879 14.6738 97.5879 16.3027V20Z" fill="white"/>
<path d="M105.752 19.6484C105.119 19.9766 104.332 20.1406 103.391 20.1406C102.172 20.1406 101.195 19.7559 100.461 18.9863C99.7266 18.2168 99.3594 17.207 99.3594 15.957C99.3594 14.6133 99.7715 13.5273 100.596 12.6992C101.424 11.8711 102.469 11.457 103.73 11.457C104.543 11.457 105.217 11.5723 105.752 11.8027V13.1855C105.186 12.8496 104.561 12.6816 103.877 12.6816C102.967 12.6816 102.229 12.9727 101.662 13.5547C101.1 14.1367 100.818 14.9141 100.818 15.8867C100.818 16.8125 101.082 17.5508 101.609 18.1016C102.137 18.6484 102.83 18.9219 103.689 18.9219C104.482 18.9219 105.17 18.7344 105.752 18.3594V19.6484Z" fill="white"/>
<path d="M112.299 20H110.98V19.0625H110.957C110.543 19.7812 109.936 20.1406 109.135 20.1406C108.545 20.1406 108.082 19.9805 107.746 19.6602C107.414 19.3398 107.248 18.916 107.248 18.3887C107.248 17.2559 107.9 16.5957 109.205 16.4082L110.986 16.1562C110.986 15.3008 110.58 14.873 109.768 14.873C109.053 14.873 108.408 15.1191 107.834 15.6113V14.4219C108.467 14.0469 109.197 13.8594 110.025 13.8594C111.541 13.8594 112.299 14.6055 112.299 16.0977V20ZM110.986 17.0527L109.727 17.2285C109.336 17.2793 109.041 17.375 108.842 17.5156C108.646 17.6523 108.549 17.8945 108.549 18.2422C108.549 18.4961 108.639 18.7051 108.818 18.8691C109.002 19.0293 109.246 19.1094 109.551 19.1094C109.965 19.1094 110.307 18.9648 110.576 18.6758C110.85 18.3828 110.986 18.0156 110.986 17.5742V17.0527Z" fill="white"/>
<path d="M117.943 15.2949C117.779 15.166 117.543 15.1016 117.234 15.1016C116.832 15.1016 116.496 15.2832 116.227 15.6465C115.957 16.0098 115.822 16.5039 115.822 17.1289V20H114.463V14H115.822V15.2363H115.846C115.979 14.8145 116.182 14.4863 116.455 14.252C116.732 14.0137 117.041 13.8945 117.381 13.8945C117.627 13.8945 117.814 13.9316 117.943 14.0059V15.2949Z" fill="white"/>
<path d="M124.379 17.3691H120.289C120.305 17.9238 120.475 18.3516 120.799 18.6523C121.127 18.9531 121.576 19.1035 122.146 19.1035C122.787 19.1035 123.375 18.9121 123.91 18.5293V19.625C123.363 19.9688 122.641 20.1406 121.742 20.1406C120.859 20.1406 120.166 19.8691 119.662 19.3262C119.162 18.7793 118.912 18.0117 118.912 17.0234C118.912 16.0898 119.188 15.3301 119.738 14.7441C120.293 14.1543 120.98 13.8594 121.801 13.8594C122.621 13.8594 123.256 14.123 123.705 14.6504C124.154 15.1777 124.379 15.9102 124.379 16.8477V17.3691ZM123.066 16.4082C123.062 15.9199 122.947 15.541 122.721 15.2715C122.494 14.998 122.182 14.8613 121.783 14.8613C121.393 14.8613 121.061 15.0039 120.787 15.2891C120.518 15.5742 120.352 15.9473 120.289 16.4082H123.066Z" fill="white"/>
<path d="M135.99 19.6484C135.357 19.9766 134.57 20.1406 133.629 20.1406C132.41 20.1406 131.434 19.7559 130.699 18.9863C129.965 18.2168 129.598 17.207 129.598 15.957C129.598 14.6133 130.01 13.5273 130.834 12.6992C131.662 11.8711 132.707 11.457 133.969 11.457C134.781 11.457 135.455 11.5723 135.99 11.8027V13.1855C135.424 12.8496 134.799 12.6816 134.115 12.6816C133.205 12.6816 132.467 12.9727 131.9 13.5547C131.338 14.1367 131.057 14.9141 131.057 15.8867C131.057 16.8125 131.32 17.5508 131.848 18.1016C132.375 18.6484 133.068 18.9219 133.928 18.9219C134.721 18.9219 135.408 18.7344 135.99 18.3594V19.6484Z" fill="white"/>
<path d="M140.592 20.1406C139.666 20.1406 138.926 19.8613 138.371 19.3027C137.82 18.7402 137.545 17.9961 137.545 17.0703C137.545 16.0625 137.832 15.2754 138.406 14.709C138.984 14.1426 139.762 13.8594 140.738 13.8594C141.676 13.8594 142.406 14.1348 142.93 14.6855C143.453 15.2363 143.715 16 143.715 16.9766C143.715 17.9336 143.432 18.7012 142.865 19.2793C142.303 19.8535 141.545 20.1406 140.592 20.1406ZM140.656 14.9434C140.125 14.9434 139.705 15.1289 139.396 15.5C139.088 15.8711 138.934 16.3828 138.934 17.0352C138.934 17.6641 139.09 18.1602 139.402 18.5234C139.715 18.8828 140.133 19.0625 140.656 19.0625C141.191 19.0625 141.602 18.8848 141.887 18.5293C142.176 18.1738 142.32 17.668 142.32 17.0117C142.32 16.3516 142.176 15.8418 141.887 15.4824C141.602 15.123 141.191 14.9434 140.656 14.9434Z" fill="white"/>
<path d="M146.166 20.1289C145.932 20.1289 145.732 20.0527 145.568 19.9004C145.404 19.7441 145.322 19.5586 145.322 19.3438C145.322 19.125 145.404 18.9375 145.568 18.7812C145.732 18.625 145.932 18.5469 146.166 18.5469C146.404 18.5469 146.605 18.625 146.77 18.7812C146.938 18.9375 147.021 19.125 147.021 19.3438C147.021 19.5586 146.938 19.7441 146.77 19.9004C146.605 20.0527 146.404 20.1289 146.166 20.1289Z" fill="white"/>
<defs>
<linearGradient id="paint0_linear" x1="11.6763" y1="30.8098" x2="20.5264" y2="35.2357" gradientUnits="userSpaceOnUse">
<stop stop-color="#8EBD4D"/>
<stop offset="1" stop-color="#4CC1F7"/>
</linearGradient>
<linearGradient id="paint1_linear" x1="21.2296" y1="1.14286" x2="12.2749" y2="-3.76607" gradientUnits="userSpaceOnUse">
<stop stop-color="#8EBD4D"/>
<stop offset="1" stop-color="#4CC1F7"/>
</linearGradient>
</defs>
</svg>
