<svg width="150" height="38" viewBox="0 0 150 38" fill="none" xmlns="http://www.w3.org/2000/svg">
<path d="M31.5069 27.3163L29.2627 37.1188L24.6194 34.436C21.3432 36.3364 18.0671 38.4431 13.9827 37.9185C12.048 37.6778 10.6292 37.1618 9.58876 36.5599C7.9292 35.5969 7.2499 34.4102 7.06073 33.7137C7.15532 33.7481 8.97825 34.3329 10.2079 34.3673C12.9165 34.4532 17.1385 32.3465 18.5572 31.4953C18.7292 31.3921 18.884 31.2975 19.0474 31.2029L14.0601 28.3223L31.5069 27.3163Z" fill="#FEC92E"/>
<path d="M0.112934 6L5.96008 9.49969C5.95148 10.4112 5.71931 19.0787 5.65912 21.8561C5.64192 22.7933 5.56453 26.6714 5.56453 26.8777C5.56453 27.8924 5.59033 28.9156 5.55594 30.7902C5.53014 32.4497 6.07186 34.3844 7.03492 35.7C7.75721 36.6889 9.45976 37.7035 9.54575 37.7551C9.47696 37.7293 8.19575 37.2306 6.60498 36.3105C5.05721 35.4163 3.26867 34.1437 2.26262 32.6303C-0.0246458 29.1478 -0.0074482 26.9379 0.00115054 23.1717L0.112934 6Z" fill="#FEE35F"/>
<path d="M120.478 0.931305L118 9.28271L136.374 8.41827L131.554 6.04471C131.609 6.01541 132.712 5.38539 133.435 5.00445C134.267 4.5649 135.144 4.06674 136.844 3.23893C136.88 3.22428 136.907 3.20963 136.944 3.19498C138.436 2.49902 140.443 2.09611 142.116 2.24262C143.391 2.35251 145.199 3.173 145.299 3.21695C145.073 3.07044 140.714 0.220703 136.844 0.0302322C132.558 -0.182216 130.542 0.740834 127.196 2.30123C127.115 2.33786 127.033 2.37449 126.952 2.41112C126.247 2.74078 125.388 3.18765 125.342 3.20963L120.478 0.931305Z" fill="#FEE35F"/>
<path d="M144.033 3.63455C142.288 2.81406 140.85 2.82138 140.117 2.98255C140.199 3.04116 141.682 4.1327 142.369 5.02645C143.87 6.98244 144.177 10.997 144.141 12.4108C144.105 14.0079 144.051 14.9016 144.033 15.7221C143.969 18.0883 143.707 27.8903 143.689 29.0184L149.838 32C149.847 30.6887 149.983 17.5316 149.992 15.7148C150.001 12.4695 150.227 9.12889 147.586 6.30846C146.339 4.97517 145.127 4.14735 144.033 3.63455Z" fill="#FEC92E"/>
<path d="M18.0244 22H16.0693V14.1592H13.123V12.1973H20.9639V14.1592H18.0244V22ZM23.1709 22H21.3047V11.7666H23.1709V15C23.3942 14.8314 23.6243 14.7129 23.8613 14.6445C24.0983 14.5716 24.3398 14.5352 24.5859 14.5352C25.0371 14.5352 25.4609 14.6217 25.8574 14.7949C26.2539 14.9635 26.598 15.1982 26.8896 15.499C27.1859 15.7952 27.4183 16.1439 27.5869 16.5449C27.7601 16.9414 27.8467 17.3652 27.8467 17.8164V22H25.9668V17.8164H25.9805C25.9805 17.625 25.944 17.445 25.8711 17.2764C25.7982 17.1032 25.6979 16.9528 25.5703 16.8252C25.4427 16.6976 25.2946 16.5973 25.126 16.5244C24.9574 16.4515 24.7773 16.415 24.5859 16.415C24.39 16.415 24.2054 16.4515 24.0322 16.5244C23.859 16.5973 23.7087 16.6976 23.5811 16.8252C23.4535 16.9528 23.3532 17.1032 23.2803 17.2764C23.2074 17.445 23.1709 17.625 23.1709 17.8164V22ZM31.5918 20.209C31.6647 20.2318 31.7376 20.2477 31.8105 20.2568C31.8835 20.2614 31.9564 20.2637 32.0293 20.2637C32.2116 20.2637 32.387 20.2386 32.5557 20.1885C32.7243 20.1383 32.8815 20.0677 33.0273 19.9766C33.1777 19.8809 33.3099 19.7669 33.4238 19.6348C33.5423 19.498 33.638 19.3477 33.7109 19.1836L35.0781 20.5576C34.9049 20.8037 34.7044 21.0247 34.4766 21.2207C34.2533 21.4167 34.0094 21.583 33.7451 21.7197C33.4854 21.8564 33.2096 21.959 32.918 22.0273C32.6309 22.1003 32.3346 22.1367 32.0293 22.1367C31.5143 22.1367 31.029 22.041 30.5732 21.8496C30.1221 21.6582 29.7256 21.3916 29.3838 21.0498C29.0465 20.708 28.7799 20.3024 28.584 19.833C28.388 19.359 28.29 18.8395 28.29 18.2744C28.29 17.6956 28.388 17.167 28.584 16.6885C28.7799 16.21 29.0465 15.8021 29.3838 15.4648C29.7256 15.1276 30.1221 14.8656 30.5732 14.6787C31.029 14.4919 31.5143 14.3984 32.0293 14.3984C32.3346 14.3984 32.6331 14.4349 32.9248 14.5078C33.2165 14.5807 33.4922 14.6855 33.752 14.8223C34.0163 14.959 34.2624 15.1276 34.4902 15.3281C34.7181 15.5241 34.9186 15.7451 35.0918 15.9912L31.5918 20.209ZM32.5488 16.3604C32.4622 16.3285 32.3757 16.3079 32.2891 16.2988C32.207 16.2897 32.1204 16.2852 32.0293 16.2852C31.7741 16.2852 31.5326 16.333 31.3047 16.4287C31.0814 16.5199 30.8854 16.652 30.7168 16.8252C30.5527 16.9984 30.4229 17.208 30.3271 17.4541C30.2314 17.6956 30.1836 17.9691 30.1836 18.2744C30.1836 18.3428 30.1859 18.4202 30.1904 18.5068C30.1995 18.5934 30.2109 18.6823 30.2246 18.7734C30.2428 18.86 30.2633 18.9443 30.2861 19.0264C30.3089 19.1084 30.3385 19.1813 30.375 19.2451L32.5488 16.3604ZM41.1191 14.1592V18.083H43.0811C43.3499 18.083 43.6029 18.0329 43.8398 17.9326C44.0768 17.8278 44.2842 17.6865 44.4619 17.5088C44.6396 17.3311 44.7786 17.1237 44.8789 16.8867C44.9837 16.6452 45.0361 16.39 45.0361 16.1211C45.0361 15.8522 44.9837 15.5993 44.8789 15.3623C44.7786 15.1208 44.6396 14.9111 44.4619 14.7334C44.2842 14.5557 44.0768 14.4167 43.8398 14.3164C43.6029 14.2116 43.3499 14.1592 43.0811 14.1592H41.1191ZM41.1191 22H39.1572V12.1973H43.0811C43.4411 12.1973 43.7874 12.2451 44.1201 12.3408C44.4528 12.432 44.7627 12.5641 45.0498 12.7373C45.3415 12.9059 45.6058 13.111 45.8428 13.3525C46.0843 13.5895 46.2894 13.8538 46.458 14.1455C46.6312 14.4372 46.7633 14.7493 46.8545 15.082C46.9502 15.4147 46.998 15.7611 46.998 16.1211C46.998 16.6589 46.8955 17.167 46.6904 17.6455C46.4854 18.1195 46.2051 18.5342 45.8496 18.8896C45.4941 19.2451 45.0771 19.5254 44.5986 19.7305C44.1247 19.9355 43.6188 20.0381 43.0811 20.0381H41.1191V22ZM49.3213 22H47.4551V11.7666H49.3213V15C49.5446 14.8314 49.7747 14.7129 50.0117 14.6445C50.2487 14.5716 50.4902 14.5352 50.7363 14.5352C51.1875 14.5352 51.6113 14.6217 52.0078 14.7949C52.4043 14.9635 52.7484 15.1982 53.04 15.499C53.3363 15.7952 53.5687 16.1439 53.7373 16.5449C53.9105 16.9414 53.9971 17.3652 53.9971 17.8164V22H52.1172V17.8164H52.1309C52.1309 17.625 52.0944 17.445 52.0215 17.2764C51.9486 17.1032 51.8483 16.9528 51.7207 16.8252C51.5931 16.6976 51.445 16.5973 51.2764 16.5244C51.1077 16.4515 50.9277 16.415 50.7363 16.415C50.5404 16.415 50.3558 16.4515 50.1826 16.5244C50.0094 16.5973 49.859 16.6976 49.7314 16.8252C49.6038 16.9528 49.5036 17.1032 49.4307 17.2764C49.3577 17.445 49.3213 17.625 49.3213 17.8164V22ZM61.9053 18.2744C61.9053 18.8213 61.8073 19.3317 61.6113 19.8057C61.4154 20.2751 61.1488 20.6829 60.8115 21.0293C60.4743 21.3711 60.0778 21.6423 59.6221 21.8428C59.1709 22.0387 58.6855 22.1367 58.166 22.1367C57.651 22.1367 57.1657 22.0387 56.71 21.8428C56.2588 21.6423 55.8623 21.3711 55.5205 21.0293C55.1833 20.6829 54.9167 20.2751 54.7207 19.8057C54.5247 19.3317 54.4268 18.8213 54.4268 18.2744C54.4268 17.7184 54.5247 17.2035 54.7207 16.7295C54.9167 16.2555 55.1833 15.8477 55.5205 15.5059C55.8623 15.1595 56.2588 14.8883 56.71 14.6924C57.1657 14.4964 57.651 14.3984 58.166 14.3984C58.6855 14.3984 59.1709 14.4919 59.6221 14.6787C60.0778 14.861 60.4743 15.123 60.8115 15.4648C61.1488 15.8021 61.4154 16.21 61.6113 16.6885C61.8073 17.1624 61.9053 17.6911 61.9053 18.2744ZM60.0254 18.2744C60.0254 17.9736 59.9753 17.7025 59.875 17.4609C59.7793 17.2148 59.6471 17.0052 59.4785 16.832C59.3099 16.6543 59.1117 16.5199 58.8838 16.4287C58.6605 16.333 58.4212 16.2852 58.166 16.2852C57.9108 16.2852 57.6693 16.333 57.4414 16.4287C57.2181 16.5199 57.0221 16.6543 56.8535 16.832C56.6895 17.0052 56.5596 17.2148 56.4639 17.4609C56.3682 17.7025 56.3203 17.9736 56.3203 18.2744C56.3203 18.557 56.3682 18.819 56.4639 19.0605C56.5596 19.3021 56.6895 19.5117 56.8535 19.6895C57.0221 19.8672 57.2181 20.0085 57.4414 20.1133C57.6693 20.2135 57.9108 20.2637 58.166 20.2637C58.4212 20.2637 58.6605 20.2158 58.8838 20.1201C59.1117 20.0244 59.3099 19.89 59.4785 19.7168C59.6471 19.5436 59.7793 19.334 59.875 19.0879C59.9753 18.8418 60.0254 18.5706 60.0254 18.2744ZM64.3037 22H62.4375V14.6787H62.8887L63.5039 15.3896C63.8047 15.1162 64.1442 14.9066 64.5225 14.7607C64.9053 14.6104 65.304 14.5352 65.7188 14.5352C66.1654 14.5352 66.5869 14.6217 66.9834 14.7949C67.3799 14.9635 67.7262 15.1982 68.0225 15.499C68.3187 15.7952 68.5511 16.1439 68.7197 16.5449C68.8929 16.9414 68.9795 17.3652 68.9795 17.8164V22H67.1133V17.8164C67.1133 17.625 67.0768 17.445 67.0039 17.2764C66.931 17.1032 66.8307 16.9528 66.7031 16.8252C66.5755 16.6976 66.4274 16.5973 66.2588 16.5244C66.0902 16.4515 65.9102 16.415 65.7188 16.415C65.5228 16.415 65.3382 16.4515 65.165 16.5244C64.9919 16.5973 64.8415 16.6976 64.7139 16.8252C64.5863 16.9528 64.486 17.1032 64.4131 17.2764C64.3402 17.445 64.3037 17.625 64.3037 17.8164V22ZM72.7246 20.209C72.7975 20.2318 72.8704 20.2477 72.9434 20.2568C73.0163 20.2614 73.0892 20.2637 73.1621 20.2637C73.3444 20.2637 73.5199 20.2386 73.6885 20.1885C73.8571 20.1383 74.0143 20.0677 74.1602 19.9766C74.3105 19.8809 74.4427 19.7669 74.5566 19.6348C74.6751 19.498 74.7708 19.3477 74.8438 19.1836L76.2109 20.5576C76.0378 20.8037 75.8372 21.0247 75.6094 21.2207C75.3861 21.4167 75.1423 21.583 74.8779 21.7197C74.6182 21.8564 74.3424 21.959 74.0508 22.0273C73.7637 22.1003 73.4674 22.1367 73.1621 22.1367C72.6471 22.1367 72.1618 22.041 71.7061 21.8496C71.2549 21.6582 70.8584 21.3916 70.5166 21.0498C70.1794 20.708 69.9128 20.3024 69.7168 19.833C69.5208 19.359 69.4229 18.8395 69.4229 18.2744C69.4229 17.6956 69.5208 17.167 69.7168 16.6885C69.9128 16.21 70.1794 15.8021 70.5166 15.4648C70.8584 15.1276 71.2549 14.8656 71.7061 14.6787C72.1618 14.4919 72.6471 14.3984 73.1621 14.3984C73.4674 14.3984 73.766 14.4349 74.0576 14.5078C74.3493 14.5807 74.625 14.6855 74.8848 14.8223C75.1491 14.959 75.3952 15.1276 75.623 15.3281C75.8509 15.5241 76.0514 15.7451 76.2246 15.9912L72.7246 20.209ZM73.6816 16.3604C73.5951 16.3285 73.5085 16.3079 73.4219 16.2988C73.3398 16.2897 73.2533 16.2852 73.1621 16.2852C72.9069 16.2852 72.6654 16.333 72.4375 16.4287C72.2142 16.5199 72.0182 16.652 71.8496 16.8252C71.6855 16.9984 71.5557 17.208 71.46 17.4541C71.3643 17.6956 71.3164 17.9691 71.3164 18.2744C71.3164 18.3428 71.3187 18.4202 71.3232 18.5068C71.3324 18.5934 71.3438 18.6823 71.3574 18.7734C71.3757 18.86 71.3962 18.9443 71.4189 19.0264C71.4417 19.1084 71.4714 19.1813 71.5078 19.2451L73.6816 16.3604ZM88.1172 20.9951C87.6615 21.387 87.151 21.6878 86.5859 21.8975C86.0208 22.1071 85.4352 22.2119 84.8291 22.2119C84.3643 22.2119 83.9154 22.1504 83.4824 22.0273C83.054 21.9089 82.6507 21.7402 82.2725 21.5215C81.8988 21.2982 81.557 21.0316 81.2471 20.7217C80.9372 20.4118 80.6706 20.07 80.4473 19.6963C80.2285 19.318 80.0576 18.9147 79.9346 18.4863C79.8161 18.0534 79.7568 17.6045 79.7568 17.1396C79.7568 16.6748 79.8161 16.2259 79.9346 15.793C80.0576 15.36 80.2285 14.9567 80.4473 14.583C80.6706 14.2048 80.9372 13.8607 81.2471 13.5508C81.557 13.2409 81.8988 12.9766 82.2725 12.7578C82.6507 12.5345 83.054 12.3636 83.4824 12.2451C83.9154 12.1221 84.3643 12.0605 84.8291 12.0605C85.4352 12.0605 86.0208 12.1654 86.5859 12.375C87.151 12.5801 87.6615 12.8809 88.1172 13.2773L87.0781 14.9863C86.791 14.6764 86.4515 14.4395 86.0596 14.2754C85.6676 14.1068 85.2575 14.0225 84.8291 14.0225C84.3962 14.0225 83.9906 14.1045 83.6123 14.2686C83.234 14.4326 82.9036 14.6559 82.6211 14.9385C82.3385 15.2165 82.1152 15.5469 81.9512 15.9297C81.7871 16.3079 81.7051 16.7113 81.7051 17.1396C81.7051 17.568 81.7871 17.9714 81.9512 18.3496C82.1152 18.7233 82.3385 19.0514 82.6211 19.334C82.9036 19.6165 83.234 19.8398 83.6123 20.0039C83.9906 20.168 84.3962 20.25 84.8291 20.25C85.2575 20.25 85.6676 20.168 86.0596 20.0039C86.4515 19.8353 86.791 19.596 87.0781 19.2861L88.1172 20.9951ZM95.376 18.2744C95.376 18.8213 95.278 19.3317 95.082 19.8057C94.8861 20.2751 94.6195 20.6829 94.2822 21.0293C93.945 21.3711 93.5485 21.6423 93.0928 21.8428C92.6416 22.0387 92.1562 22.1367 91.6367 22.1367C91.1217 22.1367 90.6364 22.0387 90.1807 21.8428C89.7295 21.6423 89.333 21.3711 88.9912 21.0293C88.654 20.6829 88.3874 20.2751 88.1914 19.8057C87.9954 19.3317 87.8975 18.8213 87.8975 18.2744C87.8975 17.7184 87.9954 17.2035 88.1914 16.7295C88.3874 16.2555 88.654 15.8477 88.9912 15.5059C89.333 15.1595 89.7295 14.8883 90.1807 14.6924C90.6364 14.4964 91.1217 14.3984 91.6367 14.3984C92.1562 14.3984 92.6416 14.4919 93.0928 14.6787C93.5485 14.861 93.945 15.123 94.2822 15.4648C94.6195 15.8021 94.8861 16.21 95.082 16.6885C95.278 17.1624 95.376 17.6911 95.376 18.2744ZM93.4961 18.2744C93.4961 17.9736 93.446 17.7025 93.3457 17.4609C93.25 17.2148 93.1178 17.0052 92.9492 16.832C92.7806 16.6543 92.5824 16.5199 92.3545 16.4287C92.1312 16.333 91.8919 16.2852 91.6367 16.2852C91.3815 16.2852 91.14 16.333 90.9121 16.4287C90.6888 16.5199 90.4928 16.6543 90.3242 16.832C90.1602 17.0052 90.0303 17.2148 89.9346 17.4609C89.8389 17.7025 89.791 17.9736 89.791 18.2744C89.791 18.557 89.8389 18.819 89.9346 19.0605C90.0303 19.3021 90.1602 19.5117 90.3242 19.6895C90.4928 19.8672 90.6888 20.0085 90.9121 20.1133C91.14 20.2135 91.3815 20.2637 91.6367 20.2637C91.8919 20.2637 92.1312 20.2158 92.3545 20.1201C92.5824 20.0244 92.7806 19.89 92.9492 19.7168C93.1178 19.5436 93.25 19.334 93.3457 19.0879C93.446 18.8418 93.4961 18.5706 93.4961 18.2744ZM105.219 22H103.359V17.3516C103.359 17.224 103.334 17.1032 103.284 16.9893C103.239 16.8753 103.173 16.7751 103.086 16.6885C102.999 16.6019 102.899 16.5358 102.785 16.4902C102.671 16.4401 102.55 16.415 102.423 16.415C102.295 16.415 102.174 16.4401 102.061 16.4902C101.951 16.5358 101.853 16.6019 101.767 16.6885C101.685 16.7751 101.618 16.8753 101.568 16.9893C101.523 17.1032 101.5 17.224 101.5 17.3516V22H99.6338V17.3516C99.6338 17.224 99.6087 17.1032 99.5586 16.9893C99.513 16.8753 99.4469 16.7751 99.3604 16.6885C99.2738 16.6019 99.1735 16.5358 99.0596 16.4902C98.9456 16.4401 98.8249 16.415 98.6973 16.415C98.5697 16.415 98.4489 16.4401 98.335 16.4902C98.2256 16.5358 98.1276 16.6019 98.041 16.6885C97.959 16.7751 97.8929 16.8753 97.8428 16.9893C97.7972 17.1032 97.7744 17.224 97.7744 17.3516V22H95.9082V14.6787H96.3594L96.8652 15.2393C97.125 15.0205 97.4098 14.8519 97.7197 14.7334C98.0342 14.6104 98.36 14.5488 98.6973 14.5488C99.0391 14.5488 99.3717 14.6126 99.6953 14.7402C100.023 14.8678 100.311 15.0889 100.557 15.4033C100.671 15.2484 100.8 15.1162 100.946 15.0068C101.092 14.8975 101.245 14.8086 101.404 14.7402C101.568 14.6719 101.737 14.624 101.91 14.5967C102.083 14.5648 102.254 14.5488 102.423 14.5488C102.81 14.5488 103.173 14.6217 103.51 14.7676C103.852 14.9134 104.148 15.1139 104.398 15.3691C104.654 15.6198 104.854 15.916 105 16.2578C105.146 16.5996 105.219 16.9642 105.219 17.3516V22ZM107.966 24.7891H106.086V14.6787H106.537L107.282 15.5605C107.451 15.401 107.635 15.2507 107.836 15.1094C108.036 14.9681 108.244 14.8473 108.458 14.7471C108.677 14.6423 108.902 14.5602 109.135 14.501C109.367 14.4417 109.602 14.4121 109.839 14.4121C110.354 14.4121 110.837 14.5055 111.288 14.6924C111.744 14.8747 112.14 15.1344 112.478 15.4717C112.819 15.8089 113.088 16.2168 113.284 16.6953C113.48 17.1693 113.578 17.6956 113.578 18.2744C113.578 18.876 113.48 19.4183 113.284 19.9014C113.088 20.3799 112.819 20.7878 112.478 21.125C112.14 21.4577 111.744 21.7129 111.288 21.8906C110.837 22.0684 110.354 22.1572 109.839 22.1572C109.675 22.1572 109.511 22.139 109.347 22.1025C109.187 22.0661 109.028 22.0182 108.868 21.959C108.713 21.8952 108.558 21.8245 108.403 21.7471C108.253 21.6696 108.107 21.5898 107.966 21.5078V24.7891ZM111.705 18.2744C111.705 17.9645 111.655 17.6865 111.555 17.4404C111.459 17.1943 111.327 16.987 111.158 16.8184C110.99 16.6452 110.791 16.513 110.563 16.4219C110.336 16.3307 110.094 16.2852 109.839 16.2852C109.584 16.2852 109.342 16.3307 109.114 16.4219C108.891 16.513 108.695 16.6452 108.526 16.8184C108.358 16.987 108.223 17.1943 108.123 17.4404C108.027 17.6865 107.979 17.9645 107.979 18.2744C107.979 18.5706 108.027 18.8418 108.123 19.0879C108.223 19.334 108.358 19.5436 108.526 19.7168C108.695 19.89 108.891 20.0244 109.114 20.1201C109.342 20.2158 109.584 20.2637 109.839 20.2637C110.094 20.2637 110.336 20.2158 110.563 20.1201C110.791 20.0244 110.99 19.89 111.158 19.7168C111.327 19.5436 111.459 19.334 111.555 19.0879C111.655 18.8418 111.705 18.5706 111.705 18.2744ZM121.206 22H120.755L120.03 20.9951C119.853 21.1546 119.663 21.305 119.463 21.4463C119.267 21.583 119.06 21.7038 118.841 21.8086C118.622 21.9089 118.396 21.9886 118.164 22.0479C117.936 22.1071 117.704 22.1367 117.467 22.1367C116.952 22.1367 116.466 22.0501 116.011 21.877C115.56 21.7038 115.163 21.4531 114.821 21.125C114.484 20.7923 114.217 20.3867 114.021 19.9082C113.826 19.4297 113.728 18.8851 113.728 18.2744C113.728 17.7048 113.826 17.1829 114.021 16.709C114.217 16.2305 114.484 15.8203 114.821 15.4785C115.163 15.1367 115.56 14.8724 116.011 14.6855C116.466 14.4941 116.952 14.3984 117.467 14.3984C117.704 14.3984 117.938 14.4281 118.171 14.4873C118.403 14.5465 118.629 14.6286 118.848 14.7334C119.066 14.8382 119.274 14.9613 119.47 15.1025C119.67 15.2438 119.857 15.3965 120.03 15.5605L120.755 14.6924H121.206V22ZM119.326 18.2744C119.326 18.0192 119.276 17.7731 119.176 17.5361C119.08 17.2946 118.948 17.0827 118.779 16.9004C118.611 16.7135 118.412 16.5654 118.185 16.4561C117.961 16.3421 117.722 16.2852 117.467 16.2852C117.212 16.2852 116.97 16.3285 116.742 16.415C116.519 16.5016 116.323 16.6292 116.154 16.7979C115.99 16.9665 115.86 17.1761 115.765 17.4268C115.669 17.6729 115.621 17.9554 115.621 18.2744C115.621 18.5934 115.669 18.8783 115.765 19.1289C115.86 19.375 115.99 19.5824 116.154 19.751C116.323 19.9196 116.519 20.0472 116.742 20.1338C116.97 20.2204 117.212 20.2637 117.467 20.2637C117.722 20.2637 117.961 20.209 118.185 20.0996C118.412 19.9857 118.611 19.8376 118.779 19.6553C118.948 19.4684 119.08 19.2565 119.176 19.0195C119.276 18.778 119.326 18.5296 119.326 18.2744ZM124.001 22H122.135V14.6787H122.586L123.201 15.3896C123.502 15.1162 123.841 14.9066 124.22 14.7607C124.603 14.6104 125.001 14.5352 125.416 14.5352C125.863 14.5352 126.284 14.6217 126.681 14.7949C127.077 14.9635 127.424 15.1982 127.72 15.499C128.016 15.7952 128.248 16.1439 128.417 16.5449C128.59 16.9414 128.677 17.3652 128.677 17.8164V22H126.811V17.8164C126.811 17.625 126.774 17.445 126.701 17.2764C126.628 17.1032 126.528 16.9528 126.4 16.8252C126.273 16.6976 126.125 16.5973 125.956 16.5244C125.787 16.4515 125.607 16.415 125.416 16.415C125.22 16.415 125.035 16.4515 124.862 16.5244C124.689 16.5973 124.539 16.6976 124.411 16.8252C124.284 16.9528 124.183 17.1032 124.11 17.2764C124.037 17.445 124.001 17.625 124.001 17.8164V22ZM131.219 24.7891V22.9092L132.258 22.9229C132.44 22.9229 132.616 22.8932 132.784 22.834C132.953 22.7747 133.108 22.6927 133.249 22.5879C133.395 22.4831 133.522 22.3577 133.632 22.2119C133.741 22.0706 133.83 21.9157 133.898 21.7471C133.693 21.8337 133.484 21.9202 133.27 22.0068C133.06 22.0934 132.848 22.1367 132.634 22.1367C132.183 22.1367 131.759 22.057 131.362 21.8975C130.966 21.738 130.617 21.5124 130.316 21.2207C130.02 20.9245 129.785 20.5667 129.612 20.1475C129.444 19.7236 129.359 19.2497 129.359 18.7256V14.6787H131.219V18.7256C131.219 18.9854 131.255 19.2132 131.328 19.4092C131.406 19.6006 131.508 19.7624 131.636 19.8945C131.763 20.0221 131.911 20.1178 132.08 20.1816C132.253 20.2454 132.438 20.2773 132.634 20.2773C132.825 20.2773 133.005 20.234 133.174 20.1475C133.347 20.0563 133.497 19.9378 133.625 19.792C133.753 19.6462 133.853 19.4821 133.926 19.2998C133.999 19.113 134.035 18.9215 134.035 18.7256V14.6787H135.915V21.0771C135.91 21.5921 135.81 22.0752 135.614 22.5264C135.418 22.9775 135.149 23.3717 134.808 23.709C134.47 24.0462 134.076 24.3128 133.625 24.5088C133.174 24.7048 132.691 24.8027 132.176 24.8027L131.219 24.7891Z" fill="white"/>
</svg>
