<svg xmlns="http://www.w3.org/2000/svg" width="297" height="100.8" viewBox="0 0 297 100.8">
  <g id="Group_3" data-name="Group 3" transform="translate(-18 -13)">
    <text id="CONTOSO" transform="translate(128 82)" fill="#fff" font-size="38" font-family="PlantagenetCherokee, Plantagenet Cherokee"><tspan x="0" y="0">CONTOSO</tspan></text>
    <g id="the-university-of-sydney-3" transform="translate(18 13)">
      <path id="Path_2" data-name="Path 2" d="M121.6,34.4h-5.5v-.7H118v-11h-3.8v1.5h-.9v-3h.9v.5h9.4v-.5h.9v3h-.9V22.7h-3.8v11h1.9C121.6,33.7,121.6,34.4,121.6,34.4Zm17.4,0h-4.6v-.7h1.4V28.4h-7.2v5.3H130v.7h-4.6v-.7h1.4V22.5h-1.4v-.7H130v.7h-1.4v5.1h7.2V22.5h-1.4v-.7H139v.7h-1.5V33.7H139Zm10.4,0h-8.7v-.7h1.4V22.5h-1.4v-.7h7.6v-.5h.9v3h-.9V22.7h-4.5v4.9h3.6V26.2h.9V30h-.9V28.5h-3.6v5.1h4.7V31.9h.9v2.5Zm18.9-11.9h-1.4v7.3a4.226,4.226,0,0,1-2.3,4.2,6.007,6.007,0,0,1-2.7.7c-2.8,0-4.8-1.8-4.8-4.4V22.5h-1.4v-.7h4.6v.7h-1.4v7.2c0,2.3,1.4,3.8,3.5,3.8a3.625,3.625,0,0,0,3.7-3.9V22.4h-1.4v-.7h3.9l-.3.8Zm11.8,12.1h-.6l-7.4-10.1v9.2h1.5v.7h-3.9v-.7h1.5V23.2l-.5-.7h-1.3v-.7h2.8l7,9.6V22.5h-1.5v-.7h3.9v.7h-1.4Zm7.4-.2h-4.6v-.7h1.4V22.5h-1.4v-.7h4.6v.7h-1.4V33.7h1.4Zm7.7.3h-.6l-4.8-12.3h-1.1v-.7h4.8v.7h-1.8l3.7,9.4,3.7-9.4h-1.3v-.7h3.3v.7h-1l-4.9,12.3Zm15.7-.3h-8.7v-.7h1.4V22.5h-1.4v-.7h7.6v-.5h.9v3h-.9V22.7h-4.5v4.9h3.6V26.2h.9V30h-.9V28.5h-3.6v5.1H210V31.9h.9v2.5Zm12.9,0h-1.6c-1.1,0-1.3-.1-2-1.1l-2.9-4.5h-1.5v5h1.4v.7h-4.6v-.7H214V22.5h-1.4v-.7h5.3c1.9,0,2.9.5,3.5,1.7a4.711,4.711,0,0,1,.4,1.7,3.056,3.056,0,0,1-2.9,3.3l2.8,4.3c.5.7.8.9,1.2.9h.7v.7Zm-8-6.6h1.8a2.442,2.442,0,0,0,2.5-2.6,2.341,2.341,0,0,0-2.5-2.6h-1.8v5.2Zm10.4,6.8h-.9V31.2h.9v1.5a4.045,4.045,0,0,0,2.5,1c1.5,0,2.6-.8,2.6-2,0-1.1-.7-1.9-2.8-3-2.4-1.3-3.2-2.2-3.2-3.8,0-1.9,1.6-3.3,3.8-3.3a4.9,4.9,0,0,1,2.3.5v-.7h.9v3.3h-.9V23.3a3.308,3.308,0,0,0-2.2-.8,1.918,1.918,0,0,0-2.1,2c0,1,.6,1.5,3,2.9s3.1,2.2,3.1,3.8a3.556,3.556,0,0,1-3.8,3.5,4.629,4.629,0,0,1-3-.9l-.2.8Zm13.1-.2h-4.6v-.7h1.4V22.5h-1.4v-.7h4.6v.7h-1.4V33.7h1.4Zm9.6,0h-5.5v-.7h1.9v-11h-3.8v1.5h-.9v-3h.9v.5h9.4v-.5h.9v3h-.9V22.7H247v11h1.9Zm12.1,0h-4.6v-.7h1.4V28.6l-4-6.1h-1.1v-.7h4.7v.7h-1.7l3.3,5,3-5h-1.7v-.7h3.8v.7h-1l-3.7,6v5.2h1.5v.7Zm8.2-6.3a6.165,6.165,0,1,1,12.3,0,6.44,6.44,0,0,1-6.1,6.6A6.52,6.52,0,0,1,269.2,28.1Zm1.9,0c0,3.2,1.8,5.6,4.3,5.6s4.2-2.4,4.2-5.6-1.8-5.6-4.2-5.6C272.9,22.5,271.1,24.8,271.1,28.1Zm16.2,6.3h-4.6v-.7h1.4V22.5h-1.4v-.7h7.6v-.5h.9v3h-.9V22.7h-4.5v4.9h3.6V26.2h.9V30h-.9V28.5h-3.6v5.3h1.4l.1.6Z" fill="#fff"/>
      <path id="Path_4" data-name="Path 4" d="M49.9,65.5h7.5V64.4H49.9Zm0,3.1h7.5V67.5H49.9Zm0-6.2h7.5V61.3H49.9Zm-5.3,2H37.1v1.1h7.5Zm0,3.1H37.1v1.1h7.5Zm0-6.2H37.1v1.1h7.5ZM56.4,41.5c-3-.2-6.1-.2-9.2-.2-3,0-6.1.1-9.1.2V56.6H9.3a44.209,44.209,0,0,0,8.4,19.6,3.174,3.174,0,0,1,2.6-1.3H38.2V90.6a34.43,34.43,0,0,0,9.1,1.2v0a33.888,33.888,0,0,0,9.1-1.2V74.9H74.3a3.174,3.174,0,0,1,2.6,1.3,45.373,45.373,0,0,0,8.4-19.6H56.4V41.5ZM42,46.2,45.9,48l1.4-4,1.4,4.1,3.8-1.9-1.9,3.9,4,1.4-4.1,1.4,1.9,3.8-3.9-1.8-1.4,4-1.5-4.1-3.6,2,1.8-3.9-4-1.4,4.1-1.4c-.1-.1-1.9-3.9-1.9-3.9ZM28.3,71.1l-3.8-1.9-1.4,4.1-1.4-4-3.9,1.8,1.9-3.8-4.1-1.4,4-1.4-1.9-3.9,3.8,1.9,1.4-4.1,1.4,4,3.9-1.8-1.9,3.8,4.1,1.5-4,1.4Zm6.2-.3H32.8V69.6h1.7Zm0-3.3H32.8V66.3h1.7Zm0-3.3H32.8V63h1.7v1.2Zm0-3.4H32.8V59.6h1.7Zm.9,10v-12h8.1a2.946,2.946,0,0,1,3,3v10a2.99,2.99,0,0,0-2.3-1.1C44,70.8,37.8,70.8,35.4,70.8ZM52.5,86.4l-3.9-1.8-1.4,4-1.5-4.1L42,86.4l1.9-3.9-4-1.4L44,79.6l-2-3.8,3.9,1.8,1.4-4,1.5,4.1,3.8-1.9-1.8,3.9,4,1.4-4.1,1.5ZM66.1,60.5,70,62.3l1.4-4,1.5,4.1,3.8-1.9-1.9,3.9,4,1.4-4.1,1.4L76.6,71l-3.9-1.8-1.4,4-1.3-4-3.8,1.9,1.9-3.9-4-1.4,4.1-1.5a35.918,35.918,0,0,1-2.1-3.8ZM60,59.6h1.7v1.2H60Zm0,3.3h1.7v1.2H60Zm0,3.3h1.7v1.2H60Zm0,3.4h1.7v1.2H60Zm-.9-10.8v12H50.4a2.845,2.845,0,0,0-2.3,1.1v-10a2.946,2.946,0,0,1,3-3h.5c-.1-.1,7.5-.1,7.5-.1Zm14.8-51A131.469,131.469,0,0,0,47.2,4.7C33,4.7,18.1,8.2,11.5,10c-1.3.3-2.3.6-2.9.8V43a264.856,264.856,0,0,1,38.6-3.4A264.856,264.856,0,0,1,85.8,43V10.7c-.6-.2-1.5-.4-2.9-.8-2.1-.5-5.3-1.3-9-2.1ZM33.6,11.2c.6-.1-.7-1.1.1-1.1a8.2,8.2,0,0,1,3.6.7c.3.1.4-.4.9-.7,0,0,.2-.1.3,0,.5.3.7.8,1,.7a12.9,12.9,0,0,1,3.6-.7c.9-.1-.4.9.1,1.1a6.511,6.511,0,0,1,5.2,6.3,6.963,6.963,0,0,1-.5,2.5c-.2.4-.6-.8-.8-.1A7.956,7.956,0,0,1,46,23.3c-.6,1.2-1.7-1.3-2-.6a3.855,3.855,0,0,1-2.9,1.8c-.1,0-.2,0-.1-.1a1.1,1.1,0,0,0,.3-.7.31.31,0,0,1,.1-.2,2.367,2.367,0,0,0,1.4-1.8,12.537,12.537,0,0,1,.9-2.5c.8-1.4-.2-3.2.1-3.6a1.965,1.965,0,0,0,.9-1.7,2.112,2.112,0,0,0-2.1-2.1,1.955,1.955,0,0,0-1.5.7l-.1.1a2.651,2.651,0,0,0-.5.6.54.54,0,0,0,.2.8c1.4.4,2.3,3.5,1.7,4.5a10.612,10.612,0,0,0-1,2.6,1.11,1.11,0,0,1-1.1,1.1,1.23,1.23,0,0,1-1.1-.7c.4-.2,1.2-.8,1.2-1.3l-.2-1.7a1.182,1.182,0,0,0,1.1-1.1c.1,0,.1-.1.2-.1.2-.2.4-.8-.1-.7a20.787,20.787,0,0,0-2.3.3.215.215,0,0,0-.2.2c0,.1.4,2.2.5,2.7,0,.1,0,.1-.1.1-.3,0-.9-.1-1-.1a4.142,4.142,0,0,0-1,.1.1.1,0,0,1-.1-.1c.1-.5.6-2.6.6-2.6V17a9.348,9.348,0,0,0-2.5-.4.367.367,0,0,0-.3.1c-.2.3.2.6.4.7a1.182,1.182,0,0,0,1.1,1.1c0,.1-.2,1.7-.2,1.7,0,.6.8,1,1.3,1.3l.1.1a1.23,1.23,0,0,1-1.1.7,1.11,1.11,0,0,1-1.1-1.1,18.078,18.078,0,0,0-1-2.7c-.6-1.1.3-4.2,1.8-4.5a.477.477,0,0,0,.2-.8c-.6-.6-1.3-1.4-2.2-1.4a2.112,2.112,0,0,0-2.1,2.1c0,1.3,1,1.5.9,1.9a4.4,4.4,0,0,0,.1,3.4,9.889,9.889,0,0,1,.9,2.4,2.564,2.564,0,0,0,1.2,1.8c.3.2.2.4.3.7.1.1.2.2.2.3.1.1,0,.1-.1.1a3.526,3.526,0,0,1-3-1.8c-.3-.7-1.4,1.7-2,.6a9.268,9.268,0,0,1-1.2-3.4c-.2-.7-.6.5-.8.1a6.963,6.963,0,0,1-.5-2.5,6.915,6.915,0,0,1,5.4-6.3Zm8.6,2.1v-.2a.764.764,0,0,1,.5-.2.9.9,0,0,1,.9.9.908.908,0,0,1-.3.7c-.1.1-.2,0-.2-.1a3.126,3.126,0,0,0-.9-1.1ZM40.1,23.6c-.2.6-1,.4-1.5.7h-.2c-.4-.4-1.2-.2-1.5-.8,0,0,0-.2.1-.2a2.239,2.239,0,0,0,1.5-.8.139.139,0,0,1,.2,0,2.091,2.091,0,0,0,1.3.7c.1.2.2.3.1.4Zm-6.1-9a.139.139,0,0,1-.2,0,.908.908,0,0,1-.3-.7.9.9,0,0,1,.9-.9.713.713,0,0,1,.6.3.139.139,0,0,1,0,.2,2.168,2.168,0,0,0-1,1.1ZM25.8,26.4a1.9,1.9,0,0,0-1.3.5c-.3.2-.4-.4,0-1.5.3-.9-1.5-1.4-1.9-1a2.436,2.436,0,0,1-3.6-.2c-.3-.3.7-.2.7-.5.1-.4.5-.6.6-.8a.247.247,0,0,0-.1-.4,1.533,1.533,0,0,1-.9-1.8c0-.1-.8-.2-.5-.4a2.69,2.69,0,0,1,3.5-.1c.1,0,.3.1.3-.1,0-.4-.2-.7.7-1.4.2-.1-.5-.7,0-.7,2.9.7,1.6,3.7,2.2,4.3,1.1,1,3.8,1.8,6.3,2.3A5.638,5.638,0,0,1,33,25a5.165,5.165,0,0,0,4.4.5c.4-.1.3.3.2.4-4,3.8-7.1,2.9-8.2,2.2a2.339,2.339,0,0,0-3,.5c-.1.1-.3.2-.4-.1a2.751,2.751,0,0,1,.2-1.8c.1-.2-.2-.3-.4-.3ZM64.3,30a3.832,3.832,0,0,1-3,.9,1.78,1.78,0,0,0-1.1.3c-.2.2-.2.3-.2.4a.959.959,0,0,0,.2.9c.2.2.1.4-.2.4a1.429,1.429,0,0,1-1.2-.2c-.3-.1-.4,0-.4.2a1,1,0,0,0,.5,1c.2.2.2.4-.2.5-.6.2-1.1-.1-1.9-.5-.5-.3-.9-.3-1.2.1-.2.2-.2.4-.1.5.3.3.5,1-.3,2-.3.3-.6-.6-.8-.5a2.121,2.121,0,0,1-2.4-.6c-.1-.1-.2-.1-.4,0-.6.4-1.8,1-2.2-.1-.1-.2-.7.2-.7-.1A2.238,2.238,0,0,1,50.9,33c.2,0,.2-.1.1-.3a1.485,1.485,0,0,1-.4-1.4c.1-.4-.9-.5-.5-.7,2.1-1,3.2.9,3.6,1.1.6.3,3.3-.5,3.6-2,.1-.3-.6-.4-1.3-.6-.1,0-.2-.2,0-.4,1.6-1.2,2.9-2.8,5.9-3.1a.452.452,0,0,1,.5.4,4.951,4.951,0,0,0,.4,1.3,4.244,4.244,0,0,0,1.5,1.9.762.762,0,0,1,0,.8Zm12.3-1c.3.1.3.3.1.5s-.5.3-1.2.3c-.3,0-.3.2-.3.3,0,.3.4.6.9.6.3.1.3.3.1.5-.4.4-1,.4-2,.4-.9,0-1.6,1.1-1.1,1.5.4.3,1.1,1,.5,2.9-.2.6-.5-.5-.8-.3-.8.5-1.4-.1-1.8-.5a.208.208,0,0,0-.4,0,1.787,1.787,0,0,1-2.7.6c-.3-.2-1.1.5-1.1.2a2.21,2.21,0,0,1,.9-2.4c.1,0,.3-.3-.1-.3a1.187,1.187,0,0,1-1.3-.9c0-.1-.7-.1-.7-.3.2-.9,2.2-1.6,3.6-.7,1.2.8,2.7-1.9,1.6-3.1-.8-.9-5.3,1.6-6.8-1.6-.6-1.3.2-2.4-.5-2.5A7.891,7.891,0,0,0,56.9,26a11.077,11.077,0,0,1-12.5,1,.221.221,0,0,0-.3.3,1.891,1.891,0,0,1-.1,1.5,8.566,8.566,0,0,1-2.8,1.8,2.365,2.365,0,0,0-1.8,3.1c.1.2,0,.4-.3.3a3.129,3.129,0,0,1-2.6-1.9c-.1-.2-.2-.2-.4,0a1.329,1.329,0,0,0-.3,1.8c.1.2,0,.3-.2.3-.8.1-1.3-.8-2-.7a2.725,2.725,0,0,0-1.2.6.44.44,0,0,0-.1.5c.8,2.5-.5,2.6-.6,2.5s0-.5-.4-.5a1.567,1.567,0,0,1-1.8-1.5c0-.2-.1-.3-.3-.2-.5.4-1.8,1.1-2.6,0-.1-.1-.5,0-.7.1s-.2-.2-.2-.3a2.681,2.681,0,0,1,1.6-2.3c.2-.1.2-.2.1-.3-.4-.3-1.2-1-.9-1.7,0-.1-.6-.4-.5-.5,1.6-1.1,3.5.7,3.8.9s1.7.3,5.3-1.8a13.367,13.367,0,0,0,4.1-3.1.623.623,0,0,1,.5-.3,6.308,6.308,0,0,0,4-1.2.33.33,0,0,1,.5,0c2.1,1.4,3.1-1.7,3.5-3.2.1-.3.1-.5.4-.6,7.6.4,21.9.3,21.9.3s1.9.1,1.8-1c-.1-1.9-8-1.8-13.8-1-2.1.3-5.2.5-7-.2a3.033,3.033,0,0,1-1.7-1.4,2.155,2.155,0,0,1-.2-1.7,5.359,5.359,0,0,1,.5-1.1c1.5-2.3,5-2.5,6-2.5a.52.52,0,0,0,.4-.2A2.036,2.036,0,0,1,58,10a3.545,3.545,0,0,0,1.1-.3c.2-.1.3,0,.2.1a.864.864,0,0,1-.3.6c-1,.9-.9,1.3-.7,1.4a.139.139,0,0,0,.2,0c3.1-2.7,4.9-.9,5.4-.3.1.1.1.3-.1.3-2.1.5-2.9,2.3-7.2,2-.5,0-4-.2-5.1,1.4-.6.9-.2,1.8,1.7,2.2,1.4.3,4.8-.2,6.4-.3,1.5-.1,8.3-1,11.8,0,1.5.4,3.7,1.6,3.2,3.9a3.11,3.11,0,0,1-1.7,2S69,25.7,76,25.8c2.2,0,0,1.8-.1,2.3,0,.4.4.7.7.9ZM63.9,13.9a1.6,1.6,0,0,0-.8.3c-.6.4-3.1,1.5-3.9.2a5.354,5.354,0,0,0,2.9-1.1,2.455,2.455,0,0,1,2,.2c-.1.2,0,.4-.2.4ZM47.3,0C23.6,0,0,6.3,0,6.3V37.8c0,28.4,20.3,57.9,47.2,63,27.9-5.5,47.3-34.6,47.3-63V6.3S74.8,0,47.3,0ZM87.5,49.3c0,23.1-17.6,44.1-40.2,44.1C24.6,93.4,7,72.4,7,49.3V9.5l.6-.2S28,3,47.2,3,86.8,9.3,86.8,9.3l.6.2V49.3Z" fill="#fff"/>
    </g>
  </g>
</svg>
